<?xml version="1.0" encoding="UTF-8" standalone="no"?><svg xmlns="http://www.w3.org/2000/svg" xmlns:xlink="http://www.w3.org/1999/xlink" contentStyleType="text/css" height="1132px" preserveAspectRatio="none" style="width:1010px;height:1132px;background:#FFFFFF;" version="1.1" viewBox="0 0 1010 1132" width="1010px" zoomAndPan="magnify"><defs/><g><!--MD5=[94788779d4739de2902497064b395820]
class DistributionNetwork--><g id="elem_DistributionNetwork"><rect codeLine="3" fill="#F1F1F1" height="220.0469" id="DistributionNetwork" rx="2.5" ry="2.5" style="stroke:#181818;stroke-width:0.5;" width="941" x="62" y="471"/><ellipse cx="467.75" cy="487" fill="#ADD1B2" rx="11" ry="11" style="stroke:#181818;stroke-width:1.0;"/><path d="M470.5156,482.875 Q470.6719,482.6563 470.8594,482.5469 Q471.0469,482.4375 471.2656,482.4375 Q471.6406,482.4375 471.875,482.7031 Q472.1094,482.9531 472.1094,483.5625 L472.1094,485.0156 Q472.1094,485.625 471.875,485.8906 Q471.6406,486.1563 471.2656,486.1563 Q470.9219,486.1563 470.7188,485.9531 Q470.5156,485.7656 470.4063,485.25 Q470.3594,484.8906 470.1719,484.7031 Q469.8438,484.3281 469.2344,484.1094 Q468.625,483.8906 468,483.8906 Q467.2344,483.8906 466.5938,484.2188 Q465.9688,484.5469 465.4688,485.2969 Q464.9844,486.0469 464.9844,487.0781 L464.9844,488.1719 Q464.9844,489.4063 465.875,490.2344 Q466.7656,491.0469 468.3594,491.0469 Q469.2969,491.0469 469.9531,490.7969 Q470.3438,490.6406 470.7656,490.2031 Q471.0313,489.9375 471.1719,489.8594 Q471.3281,489.7813 471.5313,489.7813 Q471.8594,489.7813 472.1094,490.0469 Q472.375,490.2969 472.375,490.6406 Q472.375,490.9844 472.0313,491.3906 Q471.5313,491.9688 470.7344,492.2969 Q469.6563,492.75 468.3594,492.75 Q466.8438,492.75 465.6406,492.125 Q464.6563,491.625 463.9688,490.5625 Q463.2813,489.4844 463.2813,488.2031 L463.2813,487.0469 Q463.2813,485.7188 463.8906,484.5781 Q464.5156,483.4219 465.6094,482.8125 Q466.7031,482.1875 467.9375,482.1875 Q468.6719,482.1875 469.3125,482.3594 Q469.9688,482.5156 470.5156,482.875 Z " fill="#000000"/><text fill="#000000" font-family="sans-serif" font-size="14" lengthAdjust="spacing" textLength="121" x="488.25" y="491.8535">DistributionNetwork</text><line style="stroke:#181818;stroke-width:0.5;" x1="63" x2="1002" y1="503" y2="503"/><rect fill="none" height="6" style="stroke:#C82930;stroke-width:1.0;" width="6" x="70" y="513.3203"/><text fill="#000000" font-family="sans-serif" font-size="14" lengthAdjust="spacing" textLength="205" x="82" y="519.6738">MapGraph&lt;User, Integer&gt; graph</text><line style="stroke:#181818;stroke-width:0.5;" x1="63" x2="1002" y1="526.6406" y2="526.6406"/><ellipse cx="73" cy="539.9609" fill="#84BE84" rx="3" ry="3" style="stroke:#038048;stroke-width:1.0;"/><text fill="#000000" font-family="sans-serif" font-size="14" lengthAdjust="spacing" textLength="145" x="82" y="543.3145">getGraph(): MapGraph</text><ellipse cx="73" cy="555.6016" fill="#84BE84" rx="3" ry="3" style="stroke:#038048;stroke-width:1.0;"/><text fill="#000000" font-family="sans-serif" font-size="14" lengthAdjust="spacing" textLength="209" x="82" y="558.9551">importUserCSV(String path): void</text><ellipse cx="73" cy="571.2422" fill="#84BE84" rx="3" ry="3" style="stroke:#038048;stroke-width:1.0;"/><text fill="#000000" font-family="sans-serif" font-size="14" lengthAdjust="spacing" textLength="235" x="82" y="574.5957">importDistanceCSV(String path): void</text><ellipse cx="73" cy="586.8828" fill="#84BE84" rx="3" ry="3" style="stroke:#038048;stroke-width:1.0;"/><text fill="#000000" font-family="sans-serif" font-size="14" lengthAdjust="spacing" textLength="422" x="82" y="590.2363">createUser(String locID, String userID, double lat, double lng): User</text><ellipse cx="73" cy="602.5234" fill="#84BE84" rx="3" ry="3" style="stroke:#038048;stroke-width:1.0;"/><text fill="#000000" font-family="sans-serif" font-size="14" lengthAdjust="spacing" textLength="403" x="82" y="605.877">addUser(String locID, String userID, double lat, double lng): void</text><ellipse cx="73" cy="618.1641" fill="#84BE84" rx="3" ry="3" style="stroke:#038048;stroke-width:1.0;"/><text fill="#000000" font-family="sans-serif" font-size="14" lengthAdjust="spacing" textLength="361" x="82" y="621.5176">addPath(String locID1, String locID2, Integer weight): void</text><ellipse cx="73" cy="633.8047" fill="#84BE84" rx="3" ry="3" style="stroke:#038048;stroke-width:1.0;"/><text fill="#000000" font-family="sans-serif" font-size="14" lengthAdjust="spacing" textLength="252" x="82" y="637.1582">setHUBs(int n): TreeMap&lt;Double, Firm&gt;</text><ellipse cx="73" cy="649.4453" fill="#84BE84" rx="3" ry="3" style="stroke:#038048;stroke-width:1.0;"/><text fill="#000000" font-family="sans-serif" font-size="14" lengthAdjust="spacing" textLength="109" x="82" y="652.7988">clearHUBs(): void</text><ellipse cx="73" cy="665.0859" fill="#84BE84" rx="3" ry="3" style="stroke:#038048;stroke-width:1.0;"/><text fill="#000000" font-family="sans-serif" font-size="14" lengthAdjust="spacing" textLength="915" x="82" y="668.4395">findNearestNeighboursByType(int limit, ArrayList&lt;LinkedList&lt;User&gt;&gt; paths, ArrayList&lt;Integer&gt; dists, Class&lt;?&gt; clazz): TreeSet&lt;DistancePathPair&gt;</text><ellipse cx="73" cy="680.7266" fill="#84BE84" rx="3" ry="3" style="stroke:#038048;stroke-width:1.0;"/><text fill="#000000" font-family="sans-serif" font-size="14" lengthAdjust="spacing" textLength="522" x="82" y="684.0801">findNearestHUB(ArrayList&lt;LinkedList&lt;User&gt;&gt; paths, ArrayList&lt;Integer&gt; dists): Firm</text></g><!--MD5=[c3af64caee2b44bdd22b8f8c3aca4093]
class DistancePathPair--><g id="elem_DistancePathPair"><rect codeLine="17" fill="#F1F1F1" height="126.2031" id="DistancePathPair" rx="2.5" ry="2.5" style="stroke:#181818;stroke-width:0.5;" width="395" x="7" y="798"/><ellipse cx="145.75" cy="814" fill="#ADD1B2" rx="11" ry="11" style="stroke:#181818;stroke-width:1.0;"/><path d="M148.5156,809.875 Q148.6719,809.6563 148.8594,809.5469 Q149.0469,809.4375 149.2656,809.4375 Q149.6406,809.4375 149.875,809.7031 Q150.1094,809.9531 150.1094,810.5625 L150.1094,812.0156 Q150.1094,812.625 149.875,812.8906 Q149.6406,813.1563 149.2656,813.1563 Q148.9219,813.1563 148.7188,812.9531 Q148.5156,812.7656 148.4063,812.25 Q148.3594,811.8906 148.1719,811.7031 Q147.8438,811.3281 147.2344,811.1094 Q146.625,810.8906 146,810.8906 Q145.2344,810.8906 144.5938,811.2188 Q143.9688,811.5469 143.4688,812.2969 Q142.9844,813.0469 142.9844,814.0781 L142.9844,815.1719 Q142.9844,816.4063 143.875,817.2344 Q144.7656,818.0469 146.3594,818.0469 Q147.2969,818.0469 147.9531,817.7969 Q148.3438,817.6406 148.7656,817.2031 Q149.0313,816.9375 149.1719,816.8594 Q149.3281,816.7813 149.5313,816.7813 Q149.8594,816.7813 150.1094,817.0469 Q150.375,817.2969 150.375,817.6406 Q150.375,817.9844 150.0313,818.3906 Q149.5313,818.9688 148.7344,819.2969 Q147.6563,819.75 146.3594,819.75 Q144.8438,819.75 143.6406,819.125 Q142.6563,818.625 141.9688,817.5625 Q141.2813,816.4844 141.2813,815.2031 L141.2813,814.0469 Q141.2813,812.7188 141.8906,811.5781 Q142.5156,810.4219 143.6094,809.8125 Q144.7031,809.1875 145.9375,809.1875 Q146.6719,809.1875 147.3125,809.3594 Q147.9688,809.5156 148.5156,809.875 Z " fill="#000000"/><text fill="#000000" font-family="sans-serif" font-size="14" lengthAdjust="spacing" textLength="109" x="166.25" y="818.8535">DistancePathPair</text><line style="stroke:#181818;stroke-width:0.5;" x1="8" x2="401" y1="830" y2="830"/><rect fill="none" height="6" style="stroke:#C82930;stroke-width:1.0;" width="6" x="15" y="840.3203"/><text fill="#000000" font-family="sans-serif" font-size="14" lengthAdjust="spacing" textLength="101" x="27" y="846.6738">Integer distance</text><rect fill="none" height="6" style="stroke:#C82930;stroke-width:1.0;" width="6" x="15" y="855.9609"/><text fill="#000000" font-family="sans-serif" font-size="14" lengthAdjust="spacing" textLength="141" x="27" y="862.3145">LinkedList&lt;User&gt; path</text><line style="stroke:#181818;stroke-width:0.5;" x1="8" x2="401" y1="869.2813" y2="869.2813"/><ellipse cx="18" cy="882.6016" fill="#84BE84" rx="3" ry="3" style="stroke:#038048;stroke-width:1.0;"/><text fill="#000000" font-family="sans-serif" font-size="14" lengthAdjust="spacing" textLength="369" x="27" y="885.9551">DistancePathPair(Integer distance, LinkedList&lt;User&gt; path)</text><ellipse cx="18" cy="898.2422" fill="#84BE84" rx="3" ry="3" style="stroke:#038048;stroke-width:1.0;"/><text fill="#000000" font-family="sans-serif" font-size="14" lengthAdjust="spacing" textLength="137" x="27" y="901.5957">getDistance(): Integer</text><ellipse cx="18" cy="913.8828" fill="#84BE84" rx="3" ry="3" style="stroke:#038048;stroke-width:1.0;"/><text fill="#000000" font-family="sans-serif" font-size="14" lengthAdjust="spacing" textLength="176" x="27" y="917.2363">getPath(): LinkedList&lt;User&gt;</text></g><!--MD5=[eae7ec724ddb57b8442b173ee9ef684e]
class AddUserUI--><g id="elem_AddUserUI"><rect codeLine="25" fill="#F1F1F1" height="48" id="AddUserUI" rx="2.5" ry="2.5" style="stroke:#181818;stroke-width:0.5;" width="98" x="263.5" y="7"/><ellipse cx="278.5" cy="23" fill="#ADD1B2" rx="11" ry="11" style="stroke:#181818;stroke-width:1.0;"/><path d="M281.2656,18.875 Q281.4219,18.6563 281.6094,18.5469 Q281.7969,18.4375 282.0156,18.4375 Q282.3906,18.4375 282.625,18.7031 Q282.8594,18.9531 282.8594,19.5625 L282.8594,21.0156 Q282.8594,21.625 282.625,21.8906 Q282.3906,22.1563 282.0156,22.1563 Q281.6719,22.1563 281.4688,21.9531 Q281.2656,21.7656 281.1563,21.25 Q281.1094,20.8906 280.9219,20.7031 Q280.5938,20.3281 279.9844,20.1094 Q279.375,19.8906 278.75,19.8906 Q277.9844,19.8906 277.3438,20.2188 Q276.7188,20.5469 276.2188,21.2969 Q275.7344,22.0469 275.7344,23.0781 L275.7344,24.1719 Q275.7344,25.4063 276.625,26.2344 Q277.5156,27.0469 279.1094,27.0469 Q280.0469,27.0469 280.7031,26.7969 Q281.0938,26.6406 281.5156,26.2031 Q281.7813,25.9375 281.9219,25.8594 Q282.0781,25.7813 282.2813,25.7813 Q282.6094,25.7813 282.8594,26.0469 Q283.125,26.2969 283.125,26.6406 Q283.125,26.9844 282.7813,27.3906 Q282.2813,27.9688 281.4844,28.2969 Q280.4063,28.75 279.1094,28.75 Q277.5938,28.75 276.3906,28.125 Q275.4063,27.625 274.7188,26.5625 Q274.0313,25.4844 274.0313,24.2031 L274.0313,23.0469 Q274.0313,21.7188 274.6406,20.5781 Q275.2656,19.4219 276.3594,18.8125 Q277.4531,18.1875 278.6875,18.1875 Q279.4219,18.1875 280.0625,18.3594 Q280.7188,18.5156 281.2656,18.875 Z " fill="#000000"/><text fill="#000000" font-family="sans-serif" font-size="14" lengthAdjust="spacing" textLength="66" x="292.5" y="27.8535">AddUserUI</text><line style="stroke:#181818;stroke-width:0.5;" x1="264.5" x2="360.5" y1="39" y2="39"/><line style="stroke:#181818;stroke-width:0.5;" x1="264.5" x2="360.5" y1="47" y2="47"/></g><!--MD5=[95b2de213a822e41f2e75a1558d2f636]
class AddConnectionUI--><g id="elem_AddConnectionUI"><rect codeLine="28" fill="#F1F1F1" height="48" id="AddConnectionUI" rx="2.5" ry="2.5" style="stroke:#181818;stroke-width:0.5;" width="141" x="683" y="7"/><ellipse cx="698" cy="23" fill="#ADD1B2" rx="11" ry="11" style="stroke:#181818;stroke-width:1.0;"/><path d="M700.7656,18.875 Q700.9219,18.6563 701.1094,18.5469 Q701.2969,18.4375 701.5156,18.4375 Q701.8906,18.4375 702.125,18.7031 Q702.3594,18.9531 702.3594,19.5625 L702.3594,21.0156 Q702.3594,21.625 702.125,21.8906 Q701.8906,22.1563 701.5156,22.1563 Q701.1719,22.1563 700.9688,21.9531 Q700.7656,21.7656 700.6563,21.25 Q700.6094,20.8906 700.4219,20.7031 Q700.0938,20.3281 699.4844,20.1094 Q698.875,19.8906 698.25,19.8906 Q697.4844,19.8906 696.8438,20.2188 Q696.2188,20.5469 695.7188,21.2969 Q695.2344,22.0469 695.2344,23.0781 L695.2344,24.1719 Q695.2344,25.4063 696.125,26.2344 Q697.0156,27.0469 698.6094,27.0469 Q699.5469,27.0469 700.2031,26.7969 Q700.5938,26.6406 701.0156,26.2031 Q701.2813,25.9375 701.4219,25.8594 Q701.5781,25.7813 701.7813,25.7813 Q702.1094,25.7813 702.3594,26.0469 Q702.625,26.2969 702.625,26.6406 Q702.625,26.9844 702.2813,27.3906 Q701.7813,27.9688 700.9844,28.2969 Q699.9063,28.75 698.6094,28.75 Q697.0938,28.75 695.8906,28.125 Q694.9063,27.625 694.2188,26.5625 Q693.5313,25.4844 693.5313,24.2031 L693.5313,23.0469 Q693.5313,21.7188 694.1406,20.5781 Q694.7656,19.4219 695.8594,18.8125 Q696.9531,18.1875 698.1875,18.1875 Q698.9219,18.1875 699.5625,18.3594 Q700.2188,18.5156 700.7656,18.875 Z " fill="#000000"/><text fill="#000000" font-family="sans-serif" font-size="14" lengthAdjust="spacing" textLength="109" x="712" y="27.8535">AddConnectionUI</text><line style="stroke:#181818;stroke-width:0.5;" x1="684" x2="823" y1="39" y2="39"/><line style="stroke:#181818;stroke-width:0.5;" x1="684" x2="823" y1="47" y2="47"/></g><!--MD5=[8c59cfbc2252cb07c050d5e7108b82d8]
class AddUserController--><g id="elem_AddUserController"><rect codeLine="31" fill="#F1F1F1" height="79.2813" id="AddUserController" rx="2.5" ry="2.5" style="stroke:#181818;stroke-width:0.5;" width="425" x="100" y="115"/><ellipse cx="250.25" cy="131" fill="#ADD1B2" rx="11" ry="11" style="stroke:#181818;stroke-width:1.0;"/><path d="M253.0156,126.875 Q253.1719,126.6563 253.3594,126.5469 Q253.5469,126.4375 253.7656,126.4375 Q254.1406,126.4375 254.375,126.7031 Q254.6094,126.9531 254.6094,127.5625 L254.6094,129.0156 Q254.6094,129.625 254.375,129.8906 Q254.1406,130.1563 253.7656,130.1563 Q253.4219,130.1563 253.2188,129.9531 Q253.0156,129.7656 252.9063,129.25 Q252.8594,128.8906 252.6719,128.7031 Q252.3438,128.3281 251.7344,128.1094 Q251.125,127.8906 250.5,127.8906 Q249.7344,127.8906 249.0938,128.2188 Q248.4688,128.5469 247.9688,129.2969 Q247.4844,130.0469 247.4844,131.0781 L247.4844,132.1719 Q247.4844,133.4063 248.375,134.2344 Q249.2656,135.0469 250.8594,135.0469 Q251.7969,135.0469 252.4531,134.7969 Q252.8438,134.6406 253.2656,134.2031 Q253.5313,133.9375 253.6719,133.8594 Q253.8281,133.7813 254.0313,133.7813 Q254.3594,133.7813 254.6094,134.0469 Q254.875,134.2969 254.875,134.6406 Q254.875,134.9844 254.5313,135.3906 Q254.0313,135.9688 253.2344,136.2969 Q252.1563,136.75 250.8594,136.75 Q249.3438,136.75 248.1406,136.125 Q247.1563,135.625 246.4688,134.5625 Q245.7813,133.4844 245.7813,132.2031 L245.7813,131.0469 Q245.7813,129.7188 246.3906,128.5781 Q247.0156,127.4219 248.1094,126.8125 Q249.2031,126.1875 250.4375,126.1875 Q251.1719,126.1875 251.8125,126.3594 Q252.4688,126.5156 253.0156,126.875 Z " fill="#000000"/><text fill="#000000" font-family="sans-serif" font-size="14" lengthAdjust="spacing" textLength="116" x="270.75" y="135.8535">AddUserController</text><line style="stroke:#181818;stroke-width:0.5;" x1="101" x2="524" y1="147" y2="147"/><line style="stroke:#181818;stroke-width:0.5;" x1="101" x2="524" y1="155" y2="155"/><ellipse cx="111" cy="168.3203" fill="#84BE84" rx="3" ry="3" style="stroke:#038048;stroke-width:1.0;"/><text fill="#000000" font-family="sans-serif" font-size="14" lengthAdjust="spacing" textLength="209" x="120" y="171.6738">importUserCSV(String path): void</text><ellipse cx="111" cy="183.9609" fill="#84BE84" rx="3" ry="3" style="stroke:#038048;stroke-width:1.0;"/><text fill="#000000" font-family="sans-serif" font-size="14" lengthAdjust="spacing" textLength="399" x="120" y="187.3145">addUser(String locId, String userId, double lat, double lng): void</text></g><!--MD5=[340d48225af34bbc3aad0e601bea2a64]
class AddConnectionController--><g id="elem_AddConnectionController"><rect codeLine="36" fill="#F1F1F1" height="79.2813" id="AddConnectionController" rx="2.5" ry="2.5" style="stroke:#181818;stroke-width:0.5;" width="387" x="560" y="115"/><ellipse cx="669.75" cy="131" fill="#ADD1B2" rx="11" ry="11" style="stroke:#181818;stroke-width:1.0;"/><path d="M672.5156,126.875 Q672.6719,126.6563 672.8594,126.5469 Q673.0469,126.4375 673.2656,126.4375 Q673.6406,126.4375 673.875,126.7031 Q674.1094,126.9531 674.1094,127.5625 L674.1094,129.0156 Q674.1094,129.625 673.875,129.8906 Q673.6406,130.1563 673.2656,130.1563 Q672.9219,130.1563 672.7188,129.9531 Q672.5156,129.7656 672.4063,129.25 Q672.3594,128.8906 672.1719,128.7031 Q671.8438,128.3281 671.2344,128.1094 Q670.625,127.8906 670,127.8906 Q669.2344,127.8906 668.5938,128.2188 Q667.9688,128.5469 667.4688,129.2969 Q666.9844,130.0469 666.9844,131.0781 L666.9844,132.1719 Q666.9844,133.4063 667.875,134.2344 Q668.7656,135.0469 670.3594,135.0469 Q671.2969,135.0469 671.9531,134.7969 Q672.3438,134.6406 672.7656,134.2031 Q673.0313,133.9375 673.1719,133.8594 Q673.3281,133.7813 673.5313,133.7813 Q673.8594,133.7813 674.1094,134.0469 Q674.375,134.2969 674.375,134.6406 Q674.375,134.9844 674.0313,135.3906 Q673.5313,135.9688 672.7344,136.2969 Q671.6563,136.75 670.3594,136.75 Q668.8438,136.75 667.6406,136.125 Q666.6563,135.625 665.9688,134.5625 Q665.2813,133.4844 665.2813,132.2031 L665.2813,131.0469 Q665.2813,129.7188 665.8906,128.5781 Q666.5156,127.4219 667.6094,126.8125 Q668.7031,126.1875 669.9375,126.1875 Q670.6719,126.1875 671.3125,126.3594 Q671.9688,126.5156 672.5156,126.875 Z " fill="#000000"/><text fill="#000000" font-family="sans-serif" font-size="14" lengthAdjust="spacing" textLength="159" x="690.25" y="135.8535">AddConnectionController</text><line style="stroke:#181818;stroke-width:0.5;" x1="561" x2="946" y1="147" y2="147"/><line style="stroke:#181818;stroke-width:0.5;" x1="561" x2="946" y1="155" y2="155"/><ellipse cx="571" cy="168.3203" fill="#84BE84" rx="3" ry="3" style="stroke:#038048;stroke-width:1.0;"/><text fill="#000000" font-family="sans-serif" font-size="14" lengthAdjust="spacing" textLength="235" x="580" y="171.6738">importDistanceCSV(String path): void</text><ellipse cx="571" cy="183.9609" fill="#84BE84" rx="3" ry="3" style="stroke:#038048;stroke-width:1.0;"/><text fill="#000000" font-family="sans-serif" font-size="14" lengthAdjust="spacing" textLength="361" x="580" y="187.3145">addPath(String locID1, String locID2, Integer weight): void</text></g><!--MD5=[02e4b9b7573f1156f41e60aa5b4e25a4]
class Company--><g id="elem_Company"><rect codeLine="41" fill="#F1F1F1" height="157.4844" id="Company" rx="2.5" ry="2.5" style="stroke:#181818;stroke-width:0.5;" width="306" x="379.5" y="254"/><ellipse cx="498.25" cy="270" fill="#ADD1B2" rx="11" ry="11" style="stroke:#181818;stroke-width:1.0;"/><path d="M501.0156,265.875 Q501.1719,265.6563 501.3594,265.5469 Q501.5469,265.4375 501.7656,265.4375 Q502.1406,265.4375 502.375,265.7031 Q502.6094,265.9531 502.6094,266.5625 L502.6094,268.0156 Q502.6094,268.625 502.375,268.8906 Q502.1406,269.1563 501.7656,269.1563 Q501.4219,269.1563 501.2188,268.9531 Q501.0156,268.7656 500.9063,268.25 Q500.8594,267.8906 500.6719,267.7031 Q500.3438,267.3281 499.7344,267.1094 Q499.125,266.8906 498.5,266.8906 Q497.7344,266.8906 497.0938,267.2188 Q496.4688,267.5469 495.9688,268.2969 Q495.4844,269.0469 495.4844,270.0781 L495.4844,271.1719 Q495.4844,272.4063 496.375,273.2344 Q497.2656,274.0469 498.8594,274.0469 Q499.7969,274.0469 500.4531,273.7969 Q500.8438,273.6406 501.2656,273.2031 Q501.5313,272.9375 501.6719,272.8594 Q501.8281,272.7813 502.0313,272.7813 Q502.3594,272.7813 502.6094,273.0469 Q502.875,273.2969 502.875,273.6406 Q502.875,273.9844 502.5313,274.3906 Q502.0313,274.9688 501.2344,275.2969 Q500.1563,275.75 498.8594,275.75 Q497.3438,275.75 496.1406,275.125 Q495.1563,274.625 494.4688,273.5625 Q493.7813,272.4844 493.7813,271.2031 L493.7813,270.0469 Q493.7813,268.7188 494.3906,267.5781 Q495.0156,266.4219 496.1094,265.8125 Q497.2031,265.1875 498.4375,265.1875 Q499.1719,265.1875 499.8125,265.3594 Q500.4688,265.5156 501.0156,265.875 Z " fill="#000000"/><text fill="#000000" font-family="sans-serif" font-size="14" lengthAdjust="spacing" textLength="60" x="518.75" y="274.8535">Company</text><line style="stroke:#181818;stroke-width:0.5;" x1="380.5" x2="684.5" y1="286" y2="286"/><rect fill="none" height="6" style="stroke:#C82930;stroke-width:1.0;" width="6" x="387.5" y="296.3203"/><text fill="#000000" font-family="sans-serif" font-size="14" lengthAdjust="spacing" textLength="244" x="399.5" y="302.6738">DistributionNetwork distributionNetwork</text><rect fill="none" height="6" style="stroke:#C82930;stroke-width:1.0;" width="6" x="387.5" y="311.9609"/><text fill="#000000" font-family="sans-serif" font-size="14" lengthAdjust="spacing" textLength="156" x="399.5" y="318.3145">DispatchList dispatchList</text><rect fill="none" height="6" style="stroke:#C82930;stroke-width:1.0;" width="6" x="387.5" y="327.6016"/><text fill="#000000" font-family="sans-serif" font-size="14" lengthAdjust="spacing" textLength="149" x="399.5" y="333.9551">CabazStore cabazStore</text><line style="stroke:#181818;stroke-width:0.5;" x1="380.5" x2="684.5" y1="340.9219" y2="340.9219"/><ellipse cx="390.5" cy="354.2422" fill="#84BE84" rx="3" ry="3" style="stroke:#038048;stroke-width:1.0;"/><text fill="#000000" font-family="sans-serif" font-size="14" lengthAdjust="spacing" textLength="151" x="399.5" y="357.5957">getInstance(): Company</text><ellipse cx="390.5" cy="369.8828" fill="#84BE84" rx="3" ry="3" style="stroke:#038048;stroke-width:1.0;"/><text fill="#000000" font-family="sans-serif" font-size="14" lengthAdjust="spacing" textLength="280" x="399.5" y="373.2363">getDistributionNetwork(): DistributionNetwork</text><ellipse cx="390.5" cy="385.5234" fill="#84BE84" rx="3" ry="3" style="stroke:#038048;stroke-width:1.0;"/><text fill="#000000" font-family="sans-serif" font-size="14" lengthAdjust="spacing" textLength="192" x="399.5" y="388.877">getDispatchList(): DispatchList</text><ellipse cx="390.5" cy="401.1641" fill="#84BE84" rx="3" ry="3" style="stroke:#038048;stroke-width:1.0;"/><text fill="#000000" font-family="sans-serif" font-size="14" lengthAdjust="spacing" textLength="186" x="399.5" y="404.5176">getCabazStore(): CabazStore</text></g><!--MD5=[3fd616f346a44cd59a91eb10b19e157c]
class User--><g id="elem_User"><rect codeLine="51" fill="#F1F1F1" height="220.0469" id="User" rx="2.5" ry="2.5" style="stroke:#181818;stroke-width:0.5;" width="190" x="437.5" y="751"/><ellipse cx="513.75" cy="767" fill="#ADD1B2" rx="11" ry="11" style="stroke:#181818;stroke-width:1.0;"/><path d="M516.5156,762.875 Q516.6719,762.6563 516.8594,762.5469 Q517.0469,762.4375 517.2656,762.4375 Q517.6406,762.4375 517.875,762.7031 Q518.1094,762.9531 518.1094,763.5625 L518.1094,765.0156 Q518.1094,765.625 517.875,765.8906 Q517.6406,766.1563 517.2656,766.1563 Q516.9219,766.1563 516.7188,765.9531 Q516.5156,765.7656 516.4063,765.25 Q516.3594,764.8906 516.1719,764.7031 Q515.8438,764.3281 515.2344,764.1094 Q514.625,763.8906 514,763.8906 Q513.2344,763.8906 512.5938,764.2188 Q511.9688,764.5469 511.4688,765.2969 Q510.9844,766.0469 510.9844,767.0781 L510.9844,768.1719 Q510.9844,769.4063 511.875,770.2344 Q512.7656,771.0469 514.3594,771.0469 Q515.2969,771.0469 515.9531,770.7969 Q516.3438,770.6406 516.7656,770.2031 Q517.0313,769.9375 517.1719,769.8594 Q517.3281,769.7813 517.5313,769.7813 Q517.8594,769.7813 518.1094,770.0469 Q518.375,770.2969 518.375,770.6406 Q518.375,770.9844 518.0313,771.3906 Q517.5313,771.9688 516.7344,772.2969 Q515.6563,772.75 514.3594,772.75 Q512.8438,772.75 511.6406,772.125 Q510.6563,771.625 509.9688,770.5625 Q509.2813,769.4844 509.2813,768.2031 L509.2813,767.0469 Q509.2813,765.7188 509.8906,764.5781 Q510.5156,763.4219 511.6094,762.8125 Q512.7031,762.1875 513.9375,762.1875 Q514.6719,762.1875 515.3125,762.3594 Q515.9688,762.5156 516.5156,762.875 Z " fill="#000000"/><text fill="#000000" font-family="sans-serif" font-size="14" lengthAdjust="spacing" textLength="29" x="534.25" y="771.8535">User</text><line style="stroke:#181818;stroke-width:0.5;" x1="438.5" x2="626.5" y1="783" y2="783"/><rect fill="none" height="6" style="stroke:#C82930;stroke-width:1.0;" width="6" x="445.5" y="793.3203"/><text fill="#000000" font-family="sans-serif" font-size="14" lengthAdjust="spacing" textLength="72" x="457.5" y="799.6738">String locID</text><rect fill="none" height="6" style="stroke:#C82930;stroke-width:1.0;" width="6" x="445.5" y="808.9609"/><text fill="#000000" font-family="sans-serif" font-size="14" lengthAdjust="spacing" textLength="82" x="457.5" y="815.3145">String userID</text><rect fill="none" height="6" style="stroke:#C82930;stroke-width:1.0;" width="6" x="445.5" y="824.6016"/><text fill="#000000" font-family="sans-serif" font-size="14" lengthAdjust="spacing" textLength="62" x="457.5" y="830.9551">double lat</text><rect fill="none" height="6" style="stroke:#C82930;stroke-width:1.0;" width="6" x="445.5" y="840.2422"/><text fill="#000000" font-family="sans-serif" font-size="14" lengthAdjust="spacing" textLength="66" x="457.5" y="846.5957">double lng</text><line style="stroke:#181818;stroke-width:0.5;" x1="438.5" x2="626.5" y1="853.5625" y2="853.5625"/><ellipse cx="448.5" cy="866.8828" fill="#84BE84" rx="3" ry="3" style="stroke:#038048;stroke-width:1.0;"/><text fill="#000000" font-family="sans-serif" font-size="14" lengthAdjust="spacing" textLength="111" x="457.5" y="870.2363">getLocID(): String</text><ellipse cx="448.5" cy="882.5234" fill="#84BE84" rx="3" ry="3" style="stroke:#038048;stroke-width:1.0;"/><text fill="#000000" font-family="sans-serif" font-size="14" lengthAdjust="spacing" textLength="117" x="457.5" y="885.877">getUserID(): String</text><ellipse cx="448.5" cy="898.1641" fill="#84BE84" rx="3" ry="3" style="stroke:#038048;stroke-width:1.0;"/><text fill="#000000" font-family="sans-serif" font-size="14" lengthAdjust="spacing" textLength="101" x="457.5" y="901.5176">getLat(): double</text><ellipse cx="448.5" cy="913.8047" fill="#84BE84" rx="3" ry="3" style="stroke:#038048;stroke-width:1.0;"/><text fill="#000000" font-family="sans-serif" font-size="14" lengthAdjust="spacing" textLength="105" x="457.5" y="917.1582">getLng(): double</text><ellipse cx="448.5" cy="929.4453" fill="#84BE84" rx="3" ry="3" style="stroke:#038048;stroke-width:1.0;"/><text fill="#000000" font-family="sans-serif" font-size="14" lengthAdjust="spacing" textLength="164" x="457.5" y="932.7988">equals(Object o): boolean</text><ellipse cx="448.5" cy="945.0859" fill="#84BE84" rx="3" ry="3" style="stroke:#038048;stroke-width:1.0;"/><text fill="#000000" font-family="sans-serif" font-size="14" lengthAdjust="spacing" textLength="98" x="457.5" y="948.4395">hashCode(): int</text><ellipse cx="448.5" cy="960.7266" fill="#84BE84" rx="3" ry="3" style="stroke:#038048;stroke-width:1.0;"/><text fill="#000000" font-family="sans-serif" font-size="14" lengthAdjust="spacing" textLength="102" x="457.5" y="964.0801">toString(): string</text></g><!--MD5=[ed6624c6556d5e7b1bd23032162d20b7]
class Client--><g id="elem_Client"><rect codeLine="66" fill="#F1F1F1" height="48" id="Client" rx="2.5" ry="2.5" style="stroke:#181818;stroke-width:0.5;" width="68" x="347.5" y="1054.5"/><ellipse cx="362.5" cy="1070.5" fill="#ADD1B2" rx="11" ry="11" style="stroke:#181818;stroke-width:1.0;"/><path d="M365.2656,1066.375 Q365.4219,1066.1563 365.6094,1066.0469 Q365.7969,1065.9375 366.0156,1065.9375 Q366.3906,1065.9375 366.625,1066.2031 Q366.8594,1066.4531 366.8594,1067.0625 L366.8594,1068.5156 Q366.8594,1069.125 366.625,1069.3906 Q366.3906,1069.6563 366.0156,1069.6563 Q365.6719,1069.6563 365.4688,1069.4531 Q365.2656,1069.2656 365.1563,1068.75 Q365.1094,1068.3906 364.9219,1068.2031 Q364.5938,1067.8281 363.9844,1067.6094 Q363.375,1067.3906 362.75,1067.3906 Q361.9844,1067.3906 361.3438,1067.7188 Q360.7188,1068.0469 360.2188,1068.7969 Q359.7344,1069.5469 359.7344,1070.5781 L359.7344,1071.6719 Q359.7344,1072.9063 360.625,1073.7344 Q361.5156,1074.5469 363.1094,1074.5469 Q364.0469,1074.5469 364.7031,1074.2969 Q365.0938,1074.1406 365.5156,1073.7031 Q365.7813,1073.4375 365.9219,1073.3594 Q366.0781,1073.2813 366.2813,1073.2813 Q366.6094,1073.2813 366.8594,1073.5469 Q367.125,1073.7969 367.125,1074.1406 Q367.125,1074.4844 366.7813,1074.8906 Q366.2813,1075.4688 365.4844,1075.7969 Q364.4063,1076.25 363.1094,1076.25 Q361.5938,1076.25 360.3906,1075.625 Q359.4063,1075.125 358.7188,1074.0625 Q358.0313,1072.9844 358.0313,1071.7031 L358.0313,1070.5469 Q358.0313,1069.2188 358.6406,1068.0781 Q359.2656,1066.9219 360.3594,1066.3125 Q361.4531,1065.6875 362.6875,1065.6875 Q363.4219,1065.6875 364.0625,1065.8594 Q364.7188,1066.0156 365.2656,1066.375 Z " fill="#000000"/><text fill="#000000" font-family="sans-serif" font-size="14" lengthAdjust="spacing" textLength="36" x="376.5" y="1075.3535">Client</text><line style="stroke:#181818;stroke-width:0.5;" x1="348.5" x2="414.5" y1="1086.5" y2="1086.5"/><line style="stroke:#181818;stroke-width:0.5;" x1="348.5" x2="414.5" y1="1094.5" y2="1094.5"/></g><!--MD5=[48523720a45022768e344fba20867032]
class Firm--><g id="elem_Firm"><rect codeLine="69" fill="#F1F1F1" height="94.9219" id="Firm" rx="2.5" ry="2.5" style="stroke:#181818;stroke-width:0.5;" width="164" x="450.5" y="1031"/><ellipse cx="514.25" cy="1047" fill="#ADD1B2" rx="11" ry="11" style="stroke:#181818;stroke-width:1.0;"/><path d="M517.0156,1042.875 Q517.1719,1042.6563 517.3594,1042.5469 Q517.5469,1042.4375 517.7656,1042.4375 Q518.1406,1042.4375 518.375,1042.7031 Q518.6094,1042.9531 518.6094,1043.5625 L518.6094,1045.0156 Q518.6094,1045.625 518.375,1045.8906 Q518.1406,1046.1563 517.7656,1046.1563 Q517.4219,1046.1563 517.2188,1045.9531 Q517.0156,1045.7656 516.9063,1045.25 Q516.8594,1044.8906 516.6719,1044.7031 Q516.3438,1044.3281 515.7344,1044.1094 Q515.125,1043.8906 514.5,1043.8906 Q513.7344,1043.8906 513.0938,1044.2188 Q512.4688,1044.5469 511.9688,1045.2969 Q511.4844,1046.0469 511.4844,1047.0781 L511.4844,1048.1719 Q511.4844,1049.4063 512.375,1050.2344 Q513.2656,1051.0469 514.8594,1051.0469 Q515.7969,1051.0469 516.4531,1050.7969 Q516.8438,1050.6406 517.2656,1050.2031 Q517.5313,1049.9375 517.6719,1049.8594 Q517.8281,1049.7813 518.0313,1049.7813 Q518.3594,1049.7813 518.6094,1050.0469 Q518.875,1050.2969 518.875,1050.6406 Q518.875,1050.9844 518.5313,1051.3906 Q518.0313,1051.9688 517.2344,1052.2969 Q516.1563,1052.75 514.8594,1052.75 Q513.3438,1052.75 512.1406,1052.125 Q511.1563,1051.625 510.4688,1050.5625 Q509.7813,1049.4844 509.7813,1048.2031 L509.7813,1047.0469 Q509.7813,1045.7188 510.3906,1044.5781 Q511.0156,1043.4219 512.1094,1042.8125 Q513.2031,1042.1875 514.4375,1042.1875 Q515.1719,1042.1875 515.8125,1042.3594 Q516.4688,1042.5156 517.0156,1042.875 Z " fill="#000000"/><text fill="#000000" font-family="sans-serif" font-size="14" lengthAdjust="spacing" textLength="28" x="534.75" y="1051.8535">Firm</text><line style="stroke:#181818;stroke-width:0.5;" x1="451.5" x2="613.5" y1="1063" y2="1063"/><rect fill="none" height="6" style="stroke:#C82930;stroke-width:1.0;" width="6" x="458.5" y="1073.3203"/><text fill="#000000" font-family="sans-serif" font-size="14" lengthAdjust="spacing" textLength="92" x="470.5" y="1079.6738">boolean isHUB</text><line style="stroke:#181818;stroke-width:0.5;" x1="451.5" x2="613.5" y1="1086.6406" y2="1086.6406"/><ellipse cx="461.5" cy="1099.9609" fill="#84BE84" rx="3" ry="3" style="stroke:#038048;stroke-width:1.0;"/><text fill="#000000" font-family="sans-serif" font-size="14" lengthAdjust="spacing" textLength="106" x="470.5" y="1103.3145">isHUB(): boolean</text><ellipse cx="461.5" cy="1115.6016" fill="#84BE84" rx="3" ry="3" style="stroke:#038048;stroke-width:1.0;"/><text fill="#000000" font-family="sans-serif" font-size="14" lengthAdjust="spacing" textLength="138" x="470.5" y="1118.9551">setHUB(boolean HUB)</text></g><!--MD5=[09e3160644ea82bed9dc2bfdc7bfe5c8]
class Producer--><g id="elem_Producer"><rect codeLine="75" fill="#F1F1F1" height="48" id="Producer" rx="2.5" ry="2.5" style="stroke:#181818;stroke-width:0.5;" width="90" x="649.5" y="1054.5"/><ellipse cx="664.5" cy="1070.5" fill="#ADD1B2" rx="11" ry="11" style="stroke:#181818;stroke-width:1.0;"/><path d="M667.2656,1066.375 Q667.4219,1066.1563 667.6094,1066.0469 Q667.7969,1065.9375 668.0156,1065.9375 Q668.3906,1065.9375 668.625,1066.2031 Q668.8594,1066.4531 668.8594,1067.0625 L668.8594,1068.5156 Q668.8594,1069.125 668.625,1069.3906 Q668.3906,1069.6563 668.0156,1069.6563 Q667.6719,1069.6563 667.4688,1069.4531 Q667.2656,1069.2656 667.1563,1068.75 Q667.1094,1068.3906 666.9219,1068.2031 Q666.5938,1067.8281 665.9844,1067.6094 Q665.375,1067.3906 664.75,1067.3906 Q663.9844,1067.3906 663.3438,1067.7188 Q662.7188,1068.0469 662.2188,1068.7969 Q661.7344,1069.5469 661.7344,1070.5781 L661.7344,1071.6719 Q661.7344,1072.9063 662.625,1073.7344 Q663.5156,1074.5469 665.1094,1074.5469 Q666.0469,1074.5469 666.7031,1074.2969 Q667.0938,1074.1406 667.5156,1073.7031 Q667.7813,1073.4375 667.9219,1073.3594 Q668.0781,1073.2813 668.2813,1073.2813 Q668.6094,1073.2813 668.8594,1073.5469 Q669.125,1073.7969 669.125,1074.1406 Q669.125,1074.4844 668.7813,1074.8906 Q668.2813,1075.4688 667.4844,1075.7969 Q666.4063,1076.25 665.1094,1076.25 Q663.5938,1076.25 662.3906,1075.625 Q661.4063,1075.125 660.7188,1074.0625 Q660.0313,1072.9844 660.0313,1071.7031 L660.0313,1070.5469 Q660.0313,1069.2188 660.6406,1068.0781 Q661.2656,1066.9219 662.3594,1066.3125 Q663.4531,1065.6875 664.6875,1065.6875 Q665.4219,1065.6875 666.0625,1065.8594 Q666.7188,1066.0156 667.2656,1066.375 Z " fill="#000000"/><text fill="#000000" font-family="sans-serif" font-size="14" lengthAdjust="spacing" textLength="58" x="678.5" y="1075.3535">Producer</text><line style="stroke:#181818;stroke-width:0.5;" x1="650.5" x2="738.5" y1="1086.5" y2="1086.5"/><line style="stroke:#181818;stroke-width:0.5;" x1="650.5" x2="738.5" y1="1094.5" y2="1094.5"/></g><!--MD5=[b122bab300f80f5d31a622e2bae54847]
class MapGraph--><g id="elem_MapGraph"><rect codeLine="78" fill="#F1F1F1" height="48" id="MapGraph" rx="2.5" ry="2.5" style="stroke:#181818;stroke-width:0.5;" width="99" x="663" y="837"/><ellipse cx="678" cy="853" fill="#ADD1B2" rx="11" ry="11" style="stroke:#181818;stroke-width:1.0;"/><path d="M680.7656,848.875 Q680.9219,848.6563 681.1094,848.5469 Q681.2969,848.4375 681.5156,848.4375 Q681.8906,848.4375 682.125,848.7031 Q682.3594,848.9531 682.3594,849.5625 L682.3594,851.0156 Q682.3594,851.625 682.125,851.8906 Q681.8906,852.1563 681.5156,852.1563 Q681.1719,852.1563 680.9688,851.9531 Q680.7656,851.7656 680.6563,851.25 Q680.6094,850.8906 680.4219,850.7031 Q680.0938,850.3281 679.4844,850.1094 Q678.875,849.8906 678.25,849.8906 Q677.4844,849.8906 676.8438,850.2188 Q676.2188,850.5469 675.7188,851.2969 Q675.2344,852.0469 675.2344,853.0781 L675.2344,854.1719 Q675.2344,855.4063 676.125,856.2344 Q677.0156,857.0469 678.6094,857.0469 Q679.5469,857.0469 680.2031,856.7969 Q680.5938,856.6406 681.0156,856.2031 Q681.2813,855.9375 681.4219,855.8594 Q681.5781,855.7813 681.7813,855.7813 Q682.1094,855.7813 682.3594,856.0469 Q682.625,856.2969 682.625,856.6406 Q682.625,856.9844 682.2813,857.3906 Q681.7813,857.9688 680.9844,858.2969 Q679.9063,858.75 678.6094,858.75 Q677.0938,858.75 675.8906,858.125 Q674.9063,857.625 674.2188,856.5625 Q673.5313,855.4844 673.5313,854.2031 L673.5313,853.0469 Q673.5313,851.7188 674.1406,850.5781 Q674.7656,849.4219 675.8594,848.8125 Q676.9531,848.1875 678.1875,848.1875 Q678.9219,848.1875 679.5625,848.3594 Q680.2188,848.5156 680.7656,848.875 Z " fill="#000000"/><text fill="#000000" font-family="sans-serif" font-size="14" lengthAdjust="spacing" textLength="67" x="692" y="857.8535">MapGraph</text><line style="stroke:#181818;stroke-width:0.5;" x1="664" x2="761" y1="869" y2="869"/><line style="stroke:#181818;stroke-width:0.5;" x1="664" x2="761" y1="877" y2="877"/></g><!--MD5=[91b80d2387599845d1a44023432b9dfb]
link DistributionNetwork to User--><g id="link_DistributionNetwork_User"><path codeLine="81" d="M532.5,691.08 C532.5,709.01 532.5,727.65 532.5,745.71 " fill="none" id="DistributionNetwork-to-User" style="stroke:#181818;stroke-width:1.0;"/><polygon fill="#181818" points="532.5,750.78,536.5,741.78,532.5,745.78,528.5,741.78,532.5,750.78" style="stroke:#181818;stroke-width:1.0;"/></g><!--MD5=[46133fcf84e7dd59a2b8a0888ab02143]
link Company to DistributionNetwork--><g id="link_Company_DistributionNetwork"><path codeLine="82" d="M532.5,411.16 C532.5,428.44 532.5,447.12 532.5,465.53 " fill="none" id="Company-to-DistributionNetwork" style="stroke:#181818;stroke-width:1.0;"/><polygon fill="#181818" points="532.5,470.72,536.5,461.72,532.5,465.72,528.5,461.72,532.5,470.72" style="stroke:#181818;stroke-width:1.0;"/></g><!--MD5=[e84ee71cc57d8b06988fa76755c07e85]
link AddConnectionController to Company--><g id="link_AddConnectionController_Company"><path codeLine="83" d="M705,194.12 C684.01,210.84 658.62,231.06 633.84,250.8 " fill="none" id="AddConnectionController-to-Company" style="stroke:#181818;stroke-width:1.0;"/><polygon fill="#181818" points="629.87,253.96,639.4033,251.4867,633.7827,250.847,634.4224,245.2264,629.87,253.96" style="stroke:#181818;stroke-width:1.0;"/></g><!--MD5=[4d6a504bd8592d7635dc1a37eb045d96]
link AddUserController to Company--><g id="link_AddUserController_Company"><path codeLine="84" d="M360.78,194.12 C381.67,210.84 406.95,231.06 431.62,250.8 " fill="none" id="AddUserController-to-Company" style="stroke:#181818;stroke-width:1.0;"/><polygon fill="#181818" points="435.57,253.96,431.0527,245.2082,431.6698,250.8313,426.0468,251.4485,435.57,253.96" style="stroke:#181818;stroke-width:1.0;"/></g><!--MD5=[0f6c5aca6998816433db9e5ce6ee5e43]
link AddUserUI to AddUserController--><g id="link_AddUserUI_AddUserController"><path codeLine="85" d="M312.5,55.14 C312.5,70.5 312.5,91.14 312.5,109.55 " fill="none" id="AddUserUI-to-AddUserController" style="stroke:#181818;stroke-width:1.0;"/><polygon fill="#181818" points="312.5,114.67,316.5,105.67,312.5,109.67,308.5,105.67,312.5,114.67" style="stroke:#181818;stroke-width:1.0;"/></g><!--MD5=[1df048fbe45703b251451a38879782e3]
link AddConnectionUI to AddConnectionController--><g id="link_AddConnectionUI_AddConnectionController"><path codeLine="86" d="M753.5,55.14 C753.5,70.5 753.5,91.14 753.5,109.55 " fill="none" id="AddConnectionUI-to-AddConnectionController" style="stroke:#181818;stroke-width:1.0;"/><polygon fill="#181818" points="753.5,114.67,757.5,105.67,753.5,109.67,749.5,105.67,753.5,114.67" style="stroke:#181818;stroke-width:1.0;"/></g><!--MD5=[174d7a6f6cd9b9df315cfe4f5c221ec7]
reverse link User to Firm--><g id="link_User_Firm"><path codeLine="87" d="M532.5,991.15 C532.5,1005.23 532.5,1018.8 532.5,1030.85 " fill="none" id="User-backto-Firm" style="stroke:#181818;stroke-width:1.0;"/><polygon fill="none" points="525.5,991.01,532.5,971.01,539.5,991.01,525.5,991.01" style="stroke:#181818;stroke-width:1.0;"/></g><!--MD5=[a605f9a646bac91c0f1ec4bed5c60b13]
reverse link User to Client--><g id="link_User_Client"><path codeLine="88" d="M444.52,987.57 C426.53,1013.24 409.52,1037.52 397.71,1054.36 " fill="none" id="User-backto-Client" style="stroke:#181818;stroke-width:1.0;"/><polygon fill="none" points="438.91,983.38,456.12,971.01,450.37,991.41,438.91,983.38" style="stroke:#181818;stroke-width:1.0;"/></g><!--MD5=[967d4a26e12ca63bde1f52136a2671fb]
reverse link User to Producer--><g id="link_User_Producer"><path codeLine="89" d="M626.62,987.2 C646.02,1013.01 664.38,1037.44 677.11,1054.36 " fill="none" id="User-backto-Producer" style="stroke:#181818;stroke-width:1.0;"/><polygon fill="none" points="620.87,991.21,614.45,971.01,632.06,982.79,620.87,991.21" style="stroke:#181818;stroke-width:1.0;"/></g><!--MD5=[6d8a071fffb844a0ab239bfbf358d158]
link DistributionNetwork to MapGraph--><g id="link_DistributionNetwork_MapGraph"><path codeLine="90" d="M606.36,691.14 C619.53,710.97 633.02,731.54 645.5,751 C663.15,778.52 682.65,810.43 696.04,832.58 " fill="none" id="DistributionNetwork-to-MapGraph" style="stroke:#181818;stroke-width:1.0;stroke-dasharray:7.0,7.0;"/><polygon fill="#181818" points="698.64,836.88,697.4156,827.1075,696.057,832.5988,690.5657,831.2403,698.64,836.88" style="stroke:#181818;stroke-width:1.0;"/></g><!--MD5=[ca261e27386f62cbf7a8d7bb4645e0d5]
reverse link DistributionNetwork to DistancePathPair--><g id="link_DistributionNetwork_DistancePathPair"><path codeLine="91" d="M393.74,699.61 C353.95,733.33 312.13,768.78 277.95,797.75 " fill="none" id="DistributionNetwork-backto-DistancePathPair" style="stroke:#181818;stroke-width:1.0;"/><polygon fill="#181818" points="403.81,691.08,396.6464,691.9067,394.6544,698.8372,401.8179,698.0105,403.81,691.08" style="stroke:#181818;stroke-width:1.0;"/></g><!--MD5=[8ff1f934ca9b8659af4c57a77fc6b9d0]
@startuml
'https://plantuml.com/sequence-diagram

class DistributionNetwork {
- MapGraph<User, Integer> graph
+ getGraph(): MapGraph
+ importUserCSV(String path): void
+ importDistanceCSV(String path): void
+ createUser(String locID, String userID, double lat, double lng): User
+ addUser(String locID, String userID, double lat, double lng): void
+ addPath(String locID1, String locID2, Integer weight): void
+ setHUBs(int n): TreeMap<Double, Firm>
+ clearHUBs(): void
+ findNearestNeighboursByType(int limit, ArrayList<LinkedList<User>> paths, ArrayList<Integer> dists, Class<?> clazz): TreeSet<DistancePathPair>
+ findNearestHUB(ArrayList<LinkedList<User>> paths, ArrayList<Integer> dists): Firm
}

class DistancePathPair{
- Integer distance
- LinkedList<User> path
+ DistancePathPair(Integer distance, LinkedList<User> path)
+ getDistance(): Integer
+ getPath(): LinkedList<User>
}

class AddUserUI {
}

class AddConnectionUI {
}

class AddUserController {
+ importUserCSV(String path): void
+ addUser(String locId, String userId, double lat, double lng): void
}

class AddConnectionController {
+ importDistanceCSV(String path): void
+ addPath(String locID1, String locID2, Integer weight): void
}

class Company {
- DistributionNetwork distributionNetwork
- DispatchList dispatchList
- CabazStore cabazStore
+ getInstance(): Company
+ getDistributionNetwork(): DistributionNetwork
+ getDispatchList(): DispatchList
+ getCabazStore(): CabazStore
}

class User {
- String locID
- String userID
- double lat
- double lng

+ getLocID(): String
+ getUserID(): String
+ getLat(): double
+ getLng(): double
+ equals(Object o): boolean
+ hashCode(): int
+ toString(): string
}

class Client {
}

class Firm {
- boolean isHUB
+ isHUB(): boolean
+ setHUB(boolean HUB)
}

class Producer {
}

class MapGraph {
}

DistributionNetwork - -> User
Company - -> DistributionNetwork
AddConnectionController - -> Company
AddUserController - -> Company
AddUserUI - -> AddUserController
AddConnectionUI - -> AddConnectionController
User <|- - Firm
User <|- - Client
User <|- - Producer
DistributionNetwork ..> MapGraph
DistributionNetwork *- - DistancePathPair
@enduml

@startuml

class DistributionNetwork {
- MapGraph<User, Integer> graph
+ getGraph(): MapGraph
+ importUserCSV(String path): void
+ importDistanceCSV(String path): void
+ createUser(String locID, String userID, double lat, double lng): User
+ addUser(String locID, String userID, double lat, double lng): void
+ addPath(String locID1, String locID2, Integer weight): void
+ setHUBs(int n): TreeMap<Double, Firm>
+ clearHUBs(): void
+ findNearestNeighboursByType(int limit, ArrayList<LinkedList<User>> paths, ArrayList<Integer> dists, Class<?> clazz): TreeSet<DistancePathPair>
+ findNearestHUB(ArrayList<LinkedList<User>> paths, ArrayList<Integer> dists): Firm
}

class DistancePathPair{
- Integer distance
- LinkedList<User> path
+ DistancePathPair(Integer distance, LinkedList<User> path)
+ getDistance(): Integer
+ getPath(): LinkedList<User>
}

class AddUserUI {
}

class AddConnectionUI {
}

class AddUserController {
+ importUserCSV(String path): void
+ addUser(String locId, String userId, double lat, double lng): void
}

class AddConnectionController {
+ importDistanceCSV(String path): void
+ addPath(String locID1, String locID2, Integer weight): void
}

class Company {
- DistributionNetwork distributionNetwork
- DispatchList dispatchList
- CabazStore cabazStore
+ getInstance(): Company
+ getDistributionNetwork(): DistributionNetwork
+ getDispatchList(): DispatchList
+ getCabazStore(): CabazStore
}

class User {
- String locID
- String userID
- double lat
- double lng

+ getLocID(): String
+ getUserID(): String
+ getLat(): double
+ getLng(): double
+ equals(Object o): boolean
+ hashCode(): int
+ toString(): string
}

class Client {
}

class Firm {
- boolean isHUB
+ isHUB(): boolean
+ setHUB(boolean HUB)
}

class Producer {
}

class MapGraph {
}

DistributionNetwork - -> User
Company - -> DistributionNetwork
AddConnectionController - -> Company
AddUserController - -> Company
AddUserUI - -> AddUserController
AddConnectionUI - -> AddConnectionController
User <|- - Firm
User <|- - Client
User <|- - Producer
DistributionNetwork ..> MapGraph
DistributionNetwork *- - DistancePathPair
@enduml

PlantUML version 1.2022.13(Sat Nov 19 13:22:17 WET 2022)
(GPL source distribution)
Java Runtime: OpenJDK Runtime Environment
JVM: OpenJDK 64-Bit Server VM
Default Encoding: Cp1252
Language: en
Country: GB
--></g></svg>