<?xml version="1.0" encoding="UTF-8" standalone="no"?><svg xmlns="http://www.w3.org/2000/svg" xmlns:xlink="http://www.w3.org/1999/xlink" contentStyleType="text/css" height="682px" preserveAspectRatio="none" style="width:667px;height:682px;background:#FFFFFF;" version="1.1" viewBox="0 0 667 682" width="667px" zoomAndPan="magnify"><defs/><g><!--MD5=[b48e701c93ce5e3e09150936ffaa07a1]
class Cabaz--><g id="elem_Cabaz"><rect codeLine="2" fill="#F1F1F1" height="241.7031" id="Cabaz" rx="2.5" ry="2.5" style="stroke:#181818;stroke-width:0.5;" width="301" x="116" y="434"/><ellipse cx="242.25" cy="450" fill="#ADD1B2" rx="11" ry="11" style="stroke:#181818;stroke-width:1.0;"/><path d="M245.0156,445.875 Q245.1719,445.6563 245.3594,445.5469 Q245.5469,445.4375 245.7656,445.4375 Q246.1406,445.4375 246.375,445.7031 Q246.6094,445.9531 246.6094,446.5625 L246.6094,448.0156 Q246.6094,448.625 246.375,448.8906 Q246.1406,449.1563 245.7656,449.1563 Q245.4219,449.1563 245.2188,448.9531 Q245.0156,448.7656 244.9063,448.25 Q244.8594,447.8906 244.6719,447.7031 Q244.3438,447.3281 243.7344,447.1094 Q243.125,446.8906 242.5,446.8906 Q241.7344,446.8906 241.0938,447.2188 Q240.4688,447.5469 239.9688,448.2969 Q239.4844,449.0469 239.4844,450.0781 L239.4844,451.1719 Q239.4844,452.4063 240.375,453.2344 Q241.2656,454.0469 242.8594,454.0469 Q243.7969,454.0469 244.4531,453.7969 Q244.8438,453.6406 245.2656,453.2031 Q245.5313,452.9375 245.6719,452.8594 Q245.8281,452.7813 246.0313,452.7813 Q246.3594,452.7813 246.6094,453.0469 Q246.875,453.2969 246.875,453.6406 Q246.875,453.9844 246.5313,454.3906 Q246.0313,454.9688 245.2344,455.2969 Q244.1563,455.75 242.8594,455.75 Q241.3438,455.75 240.1406,455.125 Q239.1563,454.625 238.4688,453.5625 Q237.7813,452.4844 237.7813,451.2031 L237.7813,450.0469 Q237.7813,448.7188 238.3906,447.5781 Q239.0156,446.4219 240.1094,445.8125 Q241.2031,445.1875 242.4375,445.1875 Q243.1719,445.1875 243.8125,445.3594 Q244.4688,445.5156 245.0156,445.875 Z " fill="#000000"/><text fill="#000000" font-family="sans-serif" font-size="14" lengthAdjust="spacing" textLength="40" x="262.75" y="455.7285">Cabaz</text><line style="stroke:#181818;stroke-width:0.5;" x1="117" x2="416" y1="466" y2="466"/><rect fill="none" height="6" style="stroke:#C82930;stroke-width:1.0;" width="6" x="124" y="477.3047"/><text fill="#000000" font-family="sans-serif" font-size="14" lengthAdjust="spacing" textLength="65" x="136" y="484.5332">user: User</text><rect fill="none" height="6" style="stroke:#C82930;stroke-width:1.0;" width="6" x="124" y="494.9141"/><text fill="#000000" font-family="sans-serif" font-size="14" lengthAdjust="spacing" textLength="46" x="136" y="502.1426">day: int</text><rect fill="none" height="6" style="stroke:#C82930;stroke-width:1.0;" width="6" x="124" y="512.5234"/><text fill="#000000" font-family="sans-serif" font-size="14" lengthAdjust="spacing" textLength="98" x="136" y="519.752">products: float[]</text><line style="stroke:#181818;stroke-width:0.5;" x1="117" x2="416" y1="526.8281" y2="526.8281"/><ellipse cx="127" cy="541.1328" fill="#84BE84" rx="3" ry="3" style="stroke:#038048;stroke-width:1.0;"/><text fill="#000000" font-family="sans-serif" font-size="14" lengthAdjust="spacing" textLength="275" x="136" y="545.3613">Cabaz(user: User, day: int, products: float[])</text><ellipse cx="127" cy="558.7422" fill="#84BE84" rx="3" ry="3" style="stroke:#038048;stroke-width:1.0;"/><text fill="#000000" font-family="sans-serif" font-size="14" lengthAdjust="spacing" textLength="96" x="136" y="562.9707">getUser(): User</text><ellipse cx="127" cy="576.3516" fill="#84BE84" rx="3" ry="3" style="stroke:#038048;stroke-width:1.0;"/><text fill="#000000" font-family="sans-serif" font-size="14" lengthAdjust="spacing" textLength="157" x="136" y="580.5801">setUser(user: User): void</text><ellipse cx="127" cy="593.9609" fill="#84BE84" rx="3" ry="3" style="stroke:#038048;stroke-width:1.0;"/><text fill="#000000" font-family="sans-serif" font-size="14" lengthAdjust="spacing" textLength="78" x="136" y="598.1895">getDay(): int</text><ellipse cx="127" cy="611.5703" fill="#84BE84" rx="3" ry="3" style="stroke:#038048;stroke-width:1.0;"/><text fill="#000000" font-family="sans-serif" font-size="14" lengthAdjust="spacing" textLength="134" x="136" y="615.7988">setDay(day: int): void</text><ellipse cx="127" cy="629.1797" fill="#84BE84" rx="3" ry="3" style="stroke:#038048;stroke-width:1.0;"/><text fill="#000000" font-family="sans-serif" font-size="14" lengthAdjust="spacing" textLength="129" x="136" y="633.4082">getProducts(): float[]</text><ellipse cx="127" cy="646.7891" fill="#84BE84" rx="3" ry="3" style="stroke:#038048;stroke-width:1.0;"/><text fill="#000000" font-family="sans-serif" font-size="14" lengthAdjust="spacing" textLength="217" x="136" y="651.0176">setProducts(products: float[]): void</text><ellipse cx="127" cy="664.3984" fill="#84BE84" rx="3" ry="3" style="stroke:#038048;stroke-width:1.0;"/><text fill="#000000" font-family="sans-serif" font-size="14" lengthAdjust="spacing" textLength="104" x="136" y="668.627">toString(): String</text></g><!--MD5=[ad027edadb60efab0f636b32194bf6c3]
class CabazStore--><g id="elem_CabazStore"><rect codeLine="15" fill="#F1F1F1" height="188.875" id="CabazStore" rx="2.5" ry="2.5" style="stroke:#181818;stroke-width:0.5;" width="519" x="7" y="185"/><ellipse cx="225.25" cy="201" fill="#ADD1B2" rx="11" ry="11" style="stroke:#181818;stroke-width:1.0;"/><path d="M228.0156,196.875 Q228.1719,196.6563 228.3594,196.5469 Q228.5469,196.4375 228.7656,196.4375 Q229.1406,196.4375 229.375,196.7031 Q229.6094,196.9531 229.6094,197.5625 L229.6094,199.0156 Q229.6094,199.625 229.375,199.8906 Q229.1406,200.1563 228.7656,200.1563 Q228.4219,200.1563 228.2188,199.9531 Q228.0156,199.7656 227.9063,199.25 Q227.8594,198.8906 227.6719,198.7031 Q227.3438,198.3281 226.7344,198.1094 Q226.125,197.8906 225.5,197.8906 Q224.7344,197.8906 224.0938,198.2188 Q223.4688,198.5469 222.9688,199.2969 Q222.4844,200.0469 222.4844,201.0781 L222.4844,202.1719 Q222.4844,203.4063 223.375,204.2344 Q224.2656,205.0469 225.8594,205.0469 Q226.7969,205.0469 227.4531,204.7969 Q227.8438,204.6406 228.2656,204.2031 Q228.5313,203.9375 228.6719,203.8594 Q228.8281,203.7813 229.0313,203.7813 Q229.3594,203.7813 229.6094,204.0469 Q229.875,204.2969 229.875,204.6406 Q229.875,204.9844 229.5313,205.3906 Q229.0313,205.9688 228.2344,206.2969 Q227.1563,206.75 225.8594,206.75 Q224.3438,206.75 223.1406,206.125 Q222.1563,205.625 221.4688,204.5625 Q220.7813,203.4844 220.7813,202.2031 L220.7813,201.0469 Q220.7813,199.7188 221.3906,198.5781 Q222.0156,197.4219 223.1094,196.8125 Q224.2031,196.1875 225.4375,196.1875 Q226.1719,196.1875 226.8125,196.3594 Q227.4688,196.5156 228.0156,196.875 Z " fill="#000000"/><text fill="#000000" font-family="sans-serif" font-size="14" lengthAdjust="spacing" textLength="74" x="245.75" y="206.7285">CabazStore</text><line style="stroke:#181818;stroke-width:0.5;" x1="8" x2="525" y1="217" y2="217"/><rect fill="none" height="6" style="stroke:#C82930;stroke-width:1.0;" width="6" x="15" y="228.3047"/><text fill="#000000" font-family="sans-serif" font-size="14" lengthAdjust="spacing" textLength="277" x="27" y="235.5332">cabazC: Map&lt;Integer, Map&lt;Client, Cabaz&gt;&gt;</text><rect fill="none" height="6" style="stroke:#C82930;stroke-width:1.0;" width="6" x="15" y="245.9141"/><text fill="#000000" font-family="sans-serif" font-size="14" lengthAdjust="spacing" textLength="268" x="27" y="253.1426">cabazE: Map&lt;Integer, Map&lt;Firm, Cabaz&gt;&gt;</text><rect fill="none" height="6" style="stroke:#C82930;stroke-width:1.0;" width="6" x="15" y="263.5234"/><text fill="#000000" font-family="sans-serif" font-size="14" lengthAdjust="spacing" textLength="298" x="27" y="270.752">cabazP: Map&lt;Integer, Map&lt;Producer, Cabaz&gt;&gt;</text><line style="stroke:#181818;stroke-width:0.5;" x1="8" x2="525" y1="277.8281" y2="277.8281"/><ellipse cx="18" cy="292.1328" fill="#84BE84" rx="3" ry="3" style="stroke:#038048;stroke-width:1.0;"/><text fill="#000000" font-family="sans-serif" font-size="14" lengthAdjust="spacing" textLength="493" x="27" y="296.3613">importCabazFromCSV(filePath: String, graph: MapGraph&lt;User, Integer&gt;): void</text><ellipse cx="18" cy="309.7422" fill="#84BE84" rx="3" ry="3" style="stroke:#038048;stroke-width:1.0;"/><text fill="#000000" font-family="sans-serif" font-size="14" lengthAdjust="spacing" textLength="310" x="27" y="313.9707">getCabazC(): Map&lt;Integer, Map&lt;Client, Cabaz&gt;&gt;</text><ellipse cx="18" cy="327.3516" fill="#84BE84" rx="3" ry="3" style="stroke:#038048;stroke-width:1.0;"/><text fill="#000000" font-family="sans-serif" font-size="14" lengthAdjust="spacing" textLength="301" x="27" y="331.5801">getCabazE(): Map&lt;Integer, Map&lt;Firm, Cabaz&gt;&gt;</text><ellipse cx="18" cy="344.9609" fill="#84BE84" rx="3" ry="3" style="stroke:#038048;stroke-width:1.0;"/><text fill="#000000" font-family="sans-serif" font-size="14" lengthAdjust="spacing" textLength="331" x="27" y="349.1895">getCabazP(): Map&lt;Integer, Map&lt;Producer, Cabaz&gt;&gt;</text><ellipse cx="18" cy="362.5703" fill="#84BE84" rx="3" ry="3" style="stroke:#038048;stroke-width:1.0;"/><text fill="#000000" font-family="sans-serif" font-size="14" lengthAdjust="spacing" textLength="128" x="27" y="366.7988">totalProducts(): float</text></g><!--MD5=[94788779d4739de2902497064b395820]
class DistributionNetwork--><g id="elem_DistributionNetwork"><rect codeLine="25" fill="#F1F1F1" height="118.4375" id="DistributionNetwork" rx="2.5" ry="2.5" style="stroke:#181818;stroke-width:0.5;" width="268" x="304.5" y="7"/><ellipse cx="373.75" cy="23" fill="#ADD1B2" rx="11" ry="11" style="stroke:#181818;stroke-width:1.0;"/><path d="M376.5156,18.875 Q376.6719,18.6563 376.8594,18.5469 Q377.0469,18.4375 377.2656,18.4375 Q377.6406,18.4375 377.875,18.7031 Q378.1094,18.9531 378.1094,19.5625 L378.1094,21.0156 Q378.1094,21.625 377.875,21.8906 Q377.6406,22.1563 377.2656,22.1563 Q376.9219,22.1563 376.7188,21.9531 Q376.5156,21.7656 376.4063,21.25 Q376.3594,20.8906 376.1719,20.7031 Q375.8438,20.3281 375.2344,20.1094 Q374.625,19.8906 374,19.8906 Q373.2344,19.8906 372.5938,20.2188 Q371.9688,20.5469 371.4688,21.2969 Q370.9844,22.0469 370.9844,23.0781 L370.9844,24.1719 Q370.9844,25.4063 371.875,26.2344 Q372.7656,27.0469 374.3594,27.0469 Q375.2969,27.0469 375.9531,26.7969 Q376.3438,26.6406 376.7656,26.2031 Q377.0313,25.9375 377.1719,25.8594 Q377.3281,25.7813 377.5313,25.7813 Q377.8594,25.7813 378.1094,26.0469 Q378.375,26.2969 378.375,26.6406 Q378.375,26.9844 378.0313,27.3906 Q377.5313,27.9688 376.7344,28.2969 Q375.6563,28.75 374.3594,28.75 Q372.8438,28.75 371.6406,28.125 Q370.6563,27.625 369.9688,26.5625 Q369.2813,25.4844 369.2813,24.2031 L369.2813,23.0469 Q369.2813,21.7188 369.8906,20.5781 Q370.5156,19.4219 371.6094,18.8125 Q372.7031,18.1875 373.9375,18.1875 Q374.6719,18.1875 375.3125,18.3594 Q375.9688,18.5156 376.5156,18.875 Z " fill="#000000"/><text fill="#000000" font-family="sans-serif" font-size="14" lengthAdjust="spacing" textLength="121" x="394.25" y="28.7285">DistributionNetwork</text><line style="stroke:#181818;stroke-width:0.5;" x1="305.5" x2="571.5" y1="39" y2="39"/><rect fill="none" height="6" style="stroke:#C82930;stroke-width:1.0;" width="6" x="312.5" y="50.3047"/><text fill="#000000" font-family="sans-serif" font-size="14" lengthAdjust="spacing" textLength="205" x="324.5" y="57.5332">MapGraph&lt;User, Integer&gt; graph</text><line style="stroke:#181818;stroke-width:0.5;" x1="305.5" x2="571.5" y1="64.6094" y2="64.6094"/><ellipse cx="315.5" cy="78.9141" fill="#84BE84" rx="3" ry="3" style="stroke:#038048;stroke-width:1.0;"/><text fill="#000000" font-family="sans-serif" font-size="14" lengthAdjust="spacing" textLength="209" x="324.5" y="83.1426">importUserCSV(String path): void</text><ellipse cx="315.5" cy="96.5234" fill="#84BE84" rx="3" ry="3" style="stroke:#038048;stroke-width:1.0;"/><text fill="#000000" font-family="sans-serif" font-size="14" lengthAdjust="spacing" textLength="239" x="324.5" y="100.752">importDistanceCSV(String path) : void</text><ellipse cx="315.5" cy="114.1328" fill="#84BE84" rx="3" ry="3" style="stroke:#038048;stroke-width:1.0;"/><text fill="#000000" font-family="sans-serif" font-size="14" lengthAdjust="spacing" textLength="242" x="324.5" y="118.3613">getGraph(): MapGraph&lt;User, Integer&gt;</text></g><!--MD5=[b122bab300f80f5d31a622e2bae54847]
class MapGraph--><g id="elem_MapGraph"><rect codeLine="32" fill="#F1F1F1" height="48" id="MapGraph" rx="2.5" ry="2.5" style="stroke:#181818;stroke-width:0.5;" width="99" x="561" y="255.5"/><ellipse cx="576" cy="271.5" fill="#ADD1B2" rx="11" ry="11" style="stroke:#181818;stroke-width:1.0;"/><path d="M578.7656,267.375 Q578.9219,267.1563 579.1094,267.0469 Q579.2969,266.9375 579.5156,266.9375 Q579.8906,266.9375 580.125,267.2031 Q580.3594,267.4531 580.3594,268.0625 L580.3594,269.5156 Q580.3594,270.125 580.125,270.3906 Q579.8906,270.6563 579.5156,270.6563 Q579.1719,270.6563 578.9688,270.4531 Q578.7656,270.2656 578.6563,269.75 Q578.6094,269.3906 578.4219,269.2031 Q578.0938,268.8281 577.4844,268.6094 Q576.875,268.3906 576.25,268.3906 Q575.4844,268.3906 574.8438,268.7188 Q574.2188,269.0469 573.7188,269.7969 Q573.2344,270.5469 573.2344,271.5781 L573.2344,272.6719 Q573.2344,273.9063 574.125,274.7344 Q575.0156,275.5469 576.6094,275.5469 Q577.5469,275.5469 578.2031,275.2969 Q578.5938,275.1406 579.0156,274.7031 Q579.2813,274.4375 579.4219,274.3594 Q579.5781,274.2813 579.7813,274.2813 Q580.1094,274.2813 580.3594,274.5469 Q580.625,274.7969 580.625,275.1406 Q580.625,275.4844 580.2813,275.8906 Q579.7813,276.4688 578.9844,276.7969 Q577.9063,277.25 576.6094,277.25 Q575.0938,277.25 573.8906,276.625 Q572.9063,276.125 572.2188,275.0625 Q571.5313,273.9844 571.5313,272.7031 L571.5313,271.5469 Q571.5313,270.2188 572.1406,269.0781 Q572.7656,267.9219 573.8594,267.3125 Q574.9531,266.6875 576.1875,266.6875 Q576.9219,266.6875 577.5625,266.8594 Q578.2188,267.0156 578.7656,267.375 Z " fill="#000000"/><text fill="#000000" font-family="sans-serif" font-size="14" lengthAdjust="spacing" textLength="67" x="590" y="277.2285">MapGraph</text><line style="stroke:#181818;stroke-width:0.5;" x1="562" x2="659" y1="287.5" y2="287.5"/><line style="stroke:#181818;stroke-width:0.5;" x1="562" x2="659" y1="295.5" y2="295.5"/></g><!--MD5=[e6cef031434d73856500ce6a63395f2c]
reverse link DistributionNetwork to MapGraph--><g id="link_DistributionNetwork_MapGraph"><path codeLine="34" d="M501.14,134.94 C515.4,151.07 530.24,168.42 543.5,185 C562.08,208.24 581.73,236.1 594.91,255.33 " fill="none" id="DistributionNetwork-backto-MapGraph" style="stroke:#181818;stroke-width:1.0;"/><polygon fill="#181818" points="492.36,125.07,493.3598,132.2115,500.3365,134.0353,499.3367,126.8938,492.36,125.07" style="stroke:#181818;stroke-width:1.0;"/><text fill="#000000" font-family="sans-serif" font-size="13" lengthAdjust="spacing" textLength="7" x="491.4976" y="146.734">1</text><text fill="#000000" font-family="sans-serif" font-size="13" lengthAdjust="spacing" textLength="7" x="583.0182" y="244.6266">1</text></g><!--MD5=[7aee2df8d2cc7261c66181672f2bc861]
reverse link CabazStore to Cabaz--><g id="link_CabazStore_Cabaz"><path codeLine="35" d="M266.5,387.45 C266.5,402.65 266.5,418.37 266.5,433.8 " fill="none" id="CabazStore-backto-Cabaz" style="stroke:#181818;stroke-width:1.0;"/><polygon fill="#181818" points="266.5,374.24,262.5,380.24,266.5,386.24,270.5,380.24,266.5,374.24" style="stroke:#181818;stroke-width:1.0;"/><text fill="#000000" font-family="sans-serif" font-size="13" lengthAdjust="spacing" textLength="7" x="259.243" y="395.2976">1</text><text fill="#000000" font-family="sans-serif" font-size="13" lengthAdjust="spacing" textLength="5" x="261.3398" y="423.039">*</text></g><!--MD5=[45a58f6fc2018c68327a4f90f5158a7e]
reverse link DistributionNetwork to CabazStore--><g id="link_DistributionNetwork_CabazStore"><path codeLine="36" d="M383,135.25 C370.16,151.04 356.27,168.11 342.72,184.78 " fill="none" id="DistributionNetwork-backto-CabazStore" style="stroke:#181818;stroke-width:1.0;"/><polygon fill="#181818" points="391.27,125.07,384.3813,127.2021,383.6999,134.3809,390.5886,132.2488,391.27,125.07" style="stroke:#181818;stroke-width:1.0;"/><text fill="#000000" font-family="sans-serif" font-size="13" lengthAdjust="spacing" textLength="7" x="378.0873" y="146.734">1</text><text fill="#000000" font-family="sans-serif" font-size="13" lengthAdjust="spacing" textLength="5" x="343.5946" y="174.1086">*</text></g><!--MD5=[f5912c13d8f0dd61370033c853992b9e]
@startuml
'https://plantuml.com/sequence-diagram
class Cabaz {
    -user: User
    -day: int
    -products: float[]
    +Cabaz(user: User, day: int, products: float[])
    +getUser(): User
    +setUser(user: User): void
    +getDay(): int
    +setDay(day: int): void
    +getProducts(): float[]
    +setProducts(products: float[]): void
    +toString(): String
}
class CabazStore {
    -cabazC: Map<Integer, Map<Client, Cabaz>>
    -cabazE: Map<Integer, Map<Firm, Cabaz>>
    -cabazP: Map<Integer, Map<Producer, Cabaz>>
    +importCabazFromCSV(filePath: String, graph: MapGraph<User, Integer>): void
    +getCabazC(): Map<Integer, Map<Client, Cabaz>>
    +getCabazE(): Map<Integer, Map<Firm, Cabaz>>
    +getCabazP(): Map<Integer, Map<Producer, Cabaz>>
    +totalProducts(): float
}
class DistributionNetwork {
- MapGraph<User, Integer> graph 
+ importUserCSV(String path): void
+ importDistanceCSV(String path) : void
+ getGraph(): MapGraph<User, Integer>
}

class MapGraph {
}
DistributionNetwork "1" *- - "1" MapGraph
CabazStore "1" *- - "*" Cabaz
DistributionNetwork "1" *- - "*" CabazStore
@enduml

@startuml
class Cabaz {
    -user: User
    -day: int
    -products: float[]
    +Cabaz(user: User, day: int, products: float[])
    +getUser(): User
    +setUser(user: User): void
    +getDay(): int
    +setDay(day: int): void
    +getProducts(): float[]
    +setProducts(products: float[]): void
    +toString(): String
}
class CabazStore {
    -cabazC: Map<Integer, Map<Client, Cabaz>>
    -cabazE: Map<Integer, Map<Firm, Cabaz>>
    -cabazP: Map<Integer, Map<Producer, Cabaz>>
    +importCabazFromCSV(filePath: String, graph: MapGraph<User, Integer>): void
    +getCabazC(): Map<Integer, Map<Client, Cabaz>>
    +getCabazE(): Map<Integer, Map<Firm, Cabaz>>
    +getCabazP(): Map<Integer, Map<Producer, Cabaz>>
    +totalProducts(): float
}
class DistributionNetwork {
- MapGraph<User, Integer> graph 
+ importUserCSV(String path): void
+ importDistanceCSV(String path) : void
+ getGraph(): MapGraph<User, Integer>
}

class MapGraph {
}
DistributionNetwork "1" *- - "1" MapGraph
CabazStore "1" *- - "*" Cabaz
DistributionNetwork "1" *- - "*" CabazStore
@enduml

PlantUML version 1.2022.7(Mon Aug 22 18:01:30 WEST 2022)
(GPL source distribution)
Java Runtime: OpenJDK Runtime Environment
JVM: OpenJDK 64-Bit Server VM
Default Encoding: UTF-8
Language: pt
Country: PT
--></g></svg>