<?xml version="1.0" encoding="UTF-8" standalone="no"?><svg xmlns="http://www.w3.org/2000/svg" xmlns:xlink="http://www.w3.org/1999/xlink" contentStyleType="text/css" height="134px" preserveAspectRatio="none" style="width:730px;height:134px;background:#FFFFFF;" version="1.1" viewBox="0 0 730 134" width="730px" zoomAndPan="magnify"><defs/><g><!--MD5=[73f19a1023fc7527e10d6bfd903a018f]
class closestHubToClient--><g id="elem_closestHubToClient"><rect codeLine="2" fill="#F1F1F1" height="113.9531" id="closestHubToClient" rx="2.5" ry="2.5" style="stroke:#181818;stroke-width:0.5;" width="709" x="7" y="7"/><ellipse cx="290.75" cy="23" fill="#ADD1B2" rx="11" ry="11" style="stroke:#181818;stroke-width:1.0;"/><path d="M293.7231,28.6431 Q293.1421,28.9419 292.5029,29.0913 Q291.8638,29.2407 291.1582,29.2407 Q288.6514,29.2407 287.3315,27.5889 Q286.0117,25.937 286.0117,22.8159 Q286.0117,19.6865 287.3315,18.0347 Q288.6514,16.3828 291.1582,16.3828 Q291.8638,16.3828 292.5112,16.5322 Q293.1587,16.6816 293.7231,16.9805 L293.7231,19.7031 Q293.0923,19.1221 292.4988,18.8523 Q291.9053,18.5825 291.2744,18.5825 Q289.9297,18.5825 289.2449,19.6492 Q288.5601,20.7158 288.5601,22.8159 Q288.5601,24.9077 289.2449,25.9744 Q289.9297,27.041 291.2744,27.041 Q291.9053,27.041 292.4988,26.7712 Q293.0923,26.5015 293.7231,25.9204 Z " fill="#000000"/><text fill="#000000" font-family="sans-serif" font-size="14" lengthAdjust="spacing" textLength="133" x="311.25" y="28.291">closestHubToClient</text><line style="stroke:#181818;stroke-width:0.5;" x1="8" x2="715" y1="39" y2="39"/><line style="stroke:#181818;stroke-width:0.5;" x1="8" x2="715" y1="47" y2="47"/><ellipse cx="18" cy="60.7441" fill="#84BE84" rx="3" ry="3" style="stroke:#038048;stroke-width:1.0;"/><text fill="#000000" font-family="sans-serif" font-size="14" lengthAdjust="spacing" textLength="632" x="27" y="64.5352">getclosesthubtoclients(Graph&lt;V, E&gt; g, Comparator&lt;E&gt; ce, BinaryOperator&lt;E&gt; sum, E zero)</text><ellipse cx="18" cy="77.2324" fill="#84BE84" rx="3" ry="3" style="stroke:#038048;stroke-width:1.0;"/><text fill="#000000" font-family="sans-serif" font-size="14" lengthAdjust="spacing" textLength="683" x="27" y="81.0234">getclosesthubtoclient(Graph&lt;V, E&gt; g, V client, Comparator&lt;E&gt; ce, BinaryOperator&lt;E&gt; sum, E zero)</text><ellipse cx="18" cy="93.7207" fill="#84BE84" rx="3" ry="3" style="stroke:#038048;stroke-width:1.0;"/><text fill="#000000" font-family="sans-serif" font-size="14" lengthAdjust="spacing" textLength="334" x="27" y="97.5117">DepthFirstSearchForHubs(Graph&lt;V, E&gt; g, V vert)</text><rect fill="#F24D5C" height="6" style="stroke:#C82930;stroke-width:1.0;" width="6" x="15" y="107.209"/><text fill="#000000" font-family="sans-serif" font-size="14" lengthAdjust="spacing" textLength="608" x="27" y="114">DepthFirstSearchForHubs(Graph&lt;V, E&gt; g, V vOrig, boolean[] visited, LinkedList&lt;V&gt; qdfs)</text></g><!--MD5=[02095a907e967db4e6bdc043e4b5d330]
@startuml

class closestHubToClient {
+ getclosesthubtoclients(Graph<V, E> g, Comparator<E> ce, BinaryOperator<E> sum, E zero)
+ getclosesthubtoclient(Graph<V, E> g, V client, Comparator<E> ce, BinaryOperator<E> sum, E zero)
+ DepthFirstSearchForHubs(Graph<V, E> g, V vert)
- DepthFirstSearchForHubs(Graph<V, E> g, V vOrig, boolean[] visited, LinkedList<V> qdfs)

}
@enduml

PlantUML version 1.2022.12(Sun Oct 23 19:12:26 WEST 2022)
(GPL source distribution)
Java Runtime: OpenJDK Runtime Environment
JVM: OpenJDK 64-Bit Server VM
Default Encoding: UTF-8
Language: pt
Country: PT
--></g></svg>