<?xml version="1.0" encoding="UTF-8" standalone="no"?><svg xmlns="http://www.w3.org/2000/svg" xmlns:xlink="http://www.w3.org/1999/xlink" contentStyleType="text/css" height="572px" preserveAspectRatio="none" style="width:1618px;height:572px;background:#FFFFFF;" version="1.1" viewBox="0 0 1618 572" width="1618px" zoomAndPan="magnify"><defs/><g><g id="elem_InstalaçãoAgrícola"><rect fill="#F1F1F1" height="74.5625" style="stroke:#181818;stroke-width:0.5;" width="129" x="232.5" y="189"/><text fill="#000000" font-family="sans-serif" font-size="14" lengthAdjust="spacing" textLength="115" x="239.5" y="203.6738">InstalaçãoAgrícola</text><line style="stroke:#181818;stroke-width:0.5;" x1="233.5" x2="360.5" y1="208.6406" y2="208.6406"/><text fill="#000000" font-family="sans-serif" font-size="14" lengthAdjust="spacing" textLength="75" x="238.5" y="225.3145">Designação</text><text fill="#000000" font-family="sans-serif" font-size="14" lengthAdjust="spacing" textLength="30" x="238.5" y="240.9551">Área</text><text fill="#000000" font-family="sans-serif" font-size="14" lengthAdjust="spacing" textLength="57" x="238.5" y="256.5957">Contacto</text></g><g id="elem_Cultura"><rect fill="#F1F1F1" height="58.9219" style="stroke:#181818;stroke-width:0.5;" width="114" x="643" y="340"/><text fill="#000000" font-family="sans-serif" font-size="14" lengthAdjust="spacing" textLength="46" x="677" y="354.6738">Cultura</text><line style="stroke:#181818;stroke-width:0.5;" x1="644" x2="756" y1="359.6406" y2="359.6406"/><text fill="#000000" font-family="sans-serif" font-size="14" lengthAdjust="spacing" textLength="102" x="649" y="376.3145">Especie Vegetal</text><text fill="#000000" font-family="sans-serif" font-size="14" lengthAdjust="spacing" textLength="83" x="649" y="391.9551">Permanência</text></g><g id="elem_FatoresDeProdução"><rect fill="#F1F1F1" height="74.5625" style="stroke:#181818;stroke-width:0.5;" width="142" x="313" y="482.5"/><text fill="#000000" font-family="sans-serif" font-size="14" lengthAdjust="spacing" textLength="128" x="320" y="497.1738">FatoresDeProdução</text><line style="stroke:#181818;stroke-width:0.5;" x1="314" x2="454" y1="502.1406" y2="502.1406"/><text fill="#000000" font-family="sans-serif" font-size="14" lengthAdjust="spacing" textLength="36" x="319" y="518.8145">Nome</text><text fill="#000000" font-family="sans-serif" font-size="14" lengthAdjust="spacing" textLength="75" x="319" y="534.4551">Formulação</text><text fill="#000000" font-family="sans-serif" font-size="14" lengthAdjust="spacing" textLength="89" x="319" y="550.0957">Ficha Técnica</text></g><g id="elem_SistemaDeRega"><rect fill="#F1F1F1" height="35.6406" style="stroke:#181818;stroke-width:0.5;" width="116" x="654" y="208.5"/><text fill="#000000" font-family="sans-serif" font-size="14" lengthAdjust="spacing" textLength="102" x="661" y="223.1738">SistemaDeRega</text><line style="stroke:#181818;stroke-width:0.5;" x1="655" x2="769" y1="228.1406" y2="228.1406"/></g><g id="elem_ParcelaAgricola"><rect fill="#F1F1F1" height="58.9219" style="stroke:#181818;stroke-width:0.5;" width="113" x="504.5" y="197"/><text fill="#000000" font-family="sans-serif" font-size="14" lengthAdjust="spacing" textLength="99" x="511.5" y="211.6738">ParcelaAgricola</text><line style="stroke:#181818;stroke-width:0.5;" x1="505.5" x2="616.5" y1="216.6406" y2="216.6406"/><text fill="#000000" font-family="sans-serif" font-size="14" lengthAdjust="spacing" textLength="75" x="510.5" y="233.3145">Designação</text><text fill="#000000" font-family="sans-serif" font-size="14" lengthAdjust="spacing" textLength="30" x="510.5" y="248.9551">Area</text></g><g id="elem_Edifício"><rect fill="#F1F1F1" height="35.6406" style="stroke:#181818;stroke-width:0.5;" width="59" x="235.5" y="351.5"/><text fill="#000000" font-family="sans-serif" font-size="14" lengthAdjust="spacing" textLength="45" x="242.5" y="366.1738">Edifício</text><line style="stroke:#181818;stroke-width:0.5;" x1="236.5" x2="293.5" y1="371.1406" y2="371.1406"/></g><g id="elem_Estábulo"><rect fill="#F1F1F1" height="35.6406" style="stroke:#181818;stroke-width:0.5;" width="69" x="128.5" y="208.5"/><text fill="#000000" font-family="sans-serif" font-size="14" lengthAdjust="spacing" textLength="55" x="135.5" y="223.1738">Estábulo</text><line style="stroke:#181818;stroke-width:0.5;" x1="129.5" x2="196.5" y1="228.1406" y2="228.1406"/></g><g id="elem_Garagem"><rect fill="#F1F1F1" height="35.6406" style="stroke:#181818;stroke-width:0.5;" width="73" x="12.5" y="208.5"/><text fill="#000000" font-family="sans-serif" font-size="14" lengthAdjust="spacing" textLength="59" x="19.5" y="223.1738">Garagem</text><line style="stroke:#181818;stroke-width:0.5;" x1="13.5" x2="84.5" y1="228.1406" y2="228.1406"/></g><g id="elem_Armazém"><rect fill="#F1F1F1" height="35.6406" style="stroke:#181818;stroke-width:0.5;" width="72" x="397" y="208.5"/><text fill="#000000" font-family="sans-serif" font-size="14" lengthAdjust="spacing" textLength="58" x="404" y="223.1738">Armazém</text><line style="stroke:#181818;stroke-width:0.5;" x1="398" x2="468" y1="228.1406" y2="228.1406"/></g><g id="elem_Animal"><rect fill="#F1F1F1" height="35.6406" style="stroke:#181818;stroke-width:0.5;" width="56" x="135" y="351.5"/><text fill="#000000" font-family="sans-serif" font-size="14" lengthAdjust="spacing" textLength="42" x="142" y="366.1738">Animal</text><line style="stroke:#181818;stroke-width:0.5;" x1="136" x2="190" y1="371.1406" y2="371.1406"/></g><g id="elem_Máquina"><rect fill="#F1F1F1" height="35.6406" style="stroke:#181818;stroke-width:0.5;" width="68" x="7" y="351.5"/><text fill="#000000" font-family="sans-serif" font-size="14" lengthAdjust="spacing" textLength="54" x="14" y="366.1738">Máquina</text><line style="stroke:#181818;stroke-width:0.5;" x1="8" x2="74" y1="371.1406" y2="371.1406"/></g><g id="elem_Colheita"><rect fill="#F1F1F1" height="35.6406" style="stroke:#181818;stroke-width:0.5;" width="66" x="449" y="351.5"/><text fill="#000000" font-family="sans-serif" font-size="14" lengthAdjust="spacing" textLength="52" x="456" y="366.1738">Colheita</text><line style="stroke:#181818;stroke-width:0.5;" x1="450" x2="514" y1="371.1406" y2="371.1406"/></g><g id="elem_Ração"><rect fill="#F1F1F1" height="35.6406" style="stroke:#181818;stroke-width:0.5;" width="55" x="550.5" y="351.5"/><text fill="#000000" font-family="sans-serif" font-size="14" lengthAdjust="spacing" textLength="41" x="557.5" y="366.1738">Ração</text><line style="stroke:#181818;stroke-width:0.5;" x1="551.5" x2="604.5" y1="371.1406" y2="371.1406"/></g><g id="elem_ProdutosAgrícola"><rect fill="#F1F1F1" height="35.6406" style="stroke:#181818;stroke-width:0.5;" width="122" x="746" y="502"/><text fill="#000000" font-family="sans-serif" font-size="14" lengthAdjust="spacing" textLength="108" x="753" y="516.6738">ProdutosAgrícola</text><line style="stroke:#181818;stroke-width:0.5;" x1="747" x2="867" y1="521.6406" y2="521.6406"/></g><g id="elem_Cabaz"><rect fill="#F1F1F1" height="35.6406" style="stroke:#181818;stroke-width:0.5;" width="54" x="1218" y="351.5"/><text fill="#000000" font-family="sans-serif" font-size="14" lengthAdjust="spacing" textLength="40" x="1225" y="366.1738">Cabaz</text><line style="stroke:#181818;stroke-width:0.5;" x1="1219" x2="1271" y1="371.1406" y2="371.1406"/></g><g id="elem_CadernoDeCampo"><rect fill="#F1F1F1" height="43.2813" style="stroke:#181818;stroke-width:0.5;" width="132" x="792" y="348"/><text fill="#000000" font-family="sans-serif" font-size="14" lengthAdjust="spacing" textLength="118" x="799" y="362.6738">CadernoDeCampo</text><line style="stroke:#181818;stroke-width:0.5;" x1="793" x2="923" y1="367.6406" y2="367.6406"/><text fill="#000000" font-family="sans-serif" font-size="14" lengthAdjust="spacing" textLength="25" x="798" y="384.3145">Ano</text></g><g id="elem_EstaçãoMeteorológica"><rect fill="#F1F1F1" height="105.8438" style="stroke:#181818;stroke-width:0.5;" width="429" x="208.5" y="7"/><text fill="#000000" font-family="sans-serif" font-size="14" lengthAdjust="spacing" textLength="140" x="353" y="21.6738">EstaçãoMeteorológica</text><line style="stroke:#181818;stroke-width:0.5;" x1="209.5" x2="636.5" y1="26.6406" y2="26.6406"/><text fill="#000000" font-family="sans-serif" font-size="14" lengthAdjust="spacing" textLength="148" x="214.5" y="43.3145">Sensor de pluviosidade</text><text fill="#000000" font-family="sans-serif" font-size="14" lengthAdjust="spacing" textLength="196" x="214.5" y="58.9551">Sensor de temperatura do solo</text><text fill="#000000" font-family="sans-serif" font-size="14" lengthAdjust="spacing" textLength="181" x="214.5" y="74.5957">Sensor de humidade do solo</text><text fill="#000000" font-family="sans-serif" font-size="14" lengthAdjust="spacing" textLength="196" x="214.5" y="90.2363">Sensor de velocidade do vento</text><text fill="#000000" font-family="sans-serif" font-size="14" lengthAdjust="spacing" textLength="417" x="214.5" y="105.877">Sensor de temperatura, de humidade do ar e pressão atmosférica</text></g><g id="elem_Plano"><rect fill="#F1F1F1" height="74.5625" style="stroke:#181818;stroke-width:0.5;" width="195" x="903.5" y="482.5"/><text fill="#000000" font-family="sans-serif" font-size="14" lengthAdjust="spacing" textLength="36" x="983" y="497.1738">Plano</text><line style="stroke:#181818;stroke-width:0.5;" x1="904.5" x2="1097.5" y1="502.1406" y2="502.1406"/><text fill="#000000" font-family="sans-serif" font-size="14" lengthAdjust="spacing" textLength="94" x="909.5" y="518.8145">Plano de Rega</text><text fill="#000000" font-family="sans-serif" font-size="14" lengthAdjust="spacing" textLength="132" x="909.5" y="534.4551">Plano de Fertilização</text><text fill="#000000" font-family="sans-serif" font-size="14" lengthAdjust="spacing" textLength="183" x="909.5" y="550.0957">Plano de Correções Minerais</text></g><g id="elem_Registo"><rect fill="#F1F1F1" height="90.2031" style="stroke:#181818;stroke-width:0.5;" width="216" x="495" y="475"/><text fill="#000000" font-family="sans-serif" font-size="14" lengthAdjust="spacing" textLength="48" x="579" y="489.6738">Registo</text><line style="stroke:#181818;stroke-width:0.5;" x1="496" x2="710" y1="494.6406" y2="494.6406"/><text fill="#000000" font-family="sans-serif" font-size="14" lengthAdjust="spacing" textLength="144" x="501" y="511.3145">Registo de Fertilização</text><text fill="#000000" font-family="sans-serif" font-size="14" lengthAdjust="spacing" textLength="204" x="501" y="526.9551">Registo de Dados dos Sensores</text><text fill="#000000" font-family="sans-serif" font-size="14" lengthAdjust="spacing" textLength="124" x="501" y="542.5957">Registo de Colheita</text><text fill="#000000" font-family="sans-serif" font-size="14" lengthAdjust="spacing" textLength="106" x="501" y="558.2363">Registo de Rega</text></g><g id="elem_Utilizador"><rect fill="#F1F1F1" height="35.6406" style="stroke:#181818;stroke-width:0.5;" width="71" x="963.5" y="351.5"/><text fill="#000000" font-family="sans-serif" font-size="14" lengthAdjust="spacing" textLength="57" x="970.5" y="366.1738">Utilizador</text><line style="stroke:#181818;stroke-width:0.5;" x1="964.5" x2="1033.5" y1="371.1406" y2="371.1406"/></g><g id="elem_GestorAgrícola"><rect fill="#F1F1F1" height="35.6406" style="stroke:#181818;stroke-width:0.5;" width="108" x="805" y="208.5"/><text fill="#000000" font-family="sans-serif" font-size="14" lengthAdjust="spacing" textLength="94" x="812" y="223.1738">GestorAgrícola</text><line style="stroke:#181818;stroke-width:0.5;" x1="806" x2="912" y1="228.1406" y2="228.1406"/></g><g id="elem_Cliente"><rect fill="#F1F1F1" height="35.6406" style="stroke:#181818;stroke-width:0.5;" width="58" x="1382" y="208.5"/><text fill="#000000" font-family="sans-serif" font-size="14" lengthAdjust="spacing" textLength="44" x="1389" y="223.1738">Cliente</text><line style="stroke:#181818;stroke-width:0.5;" x1="1383" x2="1439" y1="228.1406" y2="228.1406"/></g><g id="elem_Condutor"><rect fill="#F1F1F1" height="35.6406" style="stroke:#181818;stroke-width:0.5;" width="73" x="1208.5" y="208.5"/><text fill="#000000" font-family="sans-serif" font-size="14" lengthAdjust="spacing" textLength="59" x="1215.5" y="223.1738">Condutor</text><line style="stroke:#181818;stroke-width:0.5;" x1="1209.5" x2="1280.5" y1="228.1406" y2="228.1406"/></g><g id="elem_GestorDeDistribuição"><rect fill="#F1F1F1" height="35.6406" style="stroke:#181818;stroke-width:0.5;" width="149" x="966.5" y="208.5"/><text fill="#000000" font-family="sans-serif" font-size="14" lengthAdjust="spacing" textLength="135" x="973.5" y="223.1738">GestorDeDistribuição</text><line style="stroke:#181818;stroke-width:0.5;" x1="967.5" x2="1114.5" y1="228.1406" y2="228.1406"/></g><g id="elem_Empresa"><rect fill="#F1F1F1" height="35.6406" style="stroke:#181818;stroke-width:0.5;" width="70" x="1472" y="351.5"/><text fill="#000000" font-family="sans-serif" font-size="14" lengthAdjust="spacing" textLength="56" x="1479" y="366.1738">Empresa</text><line style="stroke:#181818;stroke-width:0.5;" x1="1473" x2="1541" y1="371.1406" y2="371.1406"/></g><g id="elem_Hub"><rect fill="#F1F1F1" height="35.6406" style="stroke:#181818;stroke-width:0.5;" width="39" x="1410.5" y="502"/><text fill="#000000" font-family="sans-serif" font-size="14" lengthAdjust="spacing" textLength="25" x="1417.5" y="516.6738">Hub</text><line style="stroke:#181818;stroke-width:0.5;" x1="1411.5" x2="1448.5" y1="521.6406" y2="521.6406"/></g><g id="elem_Gravidade"><rect fill="#F1F1F1" height="35.6406" style="stroke:#181818;stroke-width:0.5;" width="80" x="673" y="42"/><text fill="#000000" font-family="sans-serif" font-size="14" lengthAdjust="spacing" textLength="66" x="680" y="56.6738">Gravidade</text><line style="stroke:#181818;stroke-width:0.5;" x1="674" x2="752" y1="61.6406" y2="61.6406"/></g><g id="elem_Bombeada"><rect fill="#F1F1F1" height="35.6406" style="stroke:#181818;stroke-width:0.5;" width="82" x="788" y="42"/><text fill="#000000" font-family="sans-serif" font-size="14" lengthAdjust="spacing" textLength="68" x="795" y="56.6738">Bombeada</text><line style="stroke:#181818;stroke-width:0.5;" x1="789" x2="869" y1="61.6406" y2="61.6406"/></g><!--MD5=[acd16c708fd275786e80ff1a15263960]
link InstalaçãoAgrícola to ParcelaAgricola--><g id="link_InstalaçãoAgrícola_ParcelaAgricola"><path codeLine="62" d="M320.86,188.67 C331.39,175.45 345.03,162.14 361,155 C414.92,130.9 479.65,164.94 520.57,193.81 " fill="none" id="InstalaçãoAgrícola-to-ParcelaAgricola" style="stroke:#181818;stroke-width:1.0;"/><polygon fill="#181818" points="524.94,196.94,519.9639,188.4407,520.8791,194.023,515.2967,194.9381,524.94,196.94" style="stroke:#181818;stroke-width:1.0;"/><text fill="#000000" font-family="sans-serif" font-size="13" lengthAdjust="spacing" textLength="22" x="362" y="155.7686">tem</text><text fill="#000000" font-family="sans-serif" font-size="13" lengthAdjust="spacing" textLength="7" x="317.6139" y="178.2616">1</text><text fill="#000000" font-family="sans-serif" font-size="13" lengthAdjust="spacing" textLength="5" x="511.023" y="186.3236">*</text></g><!--MD5=[d413f3096a73cdc0db67bb1c937784e6]
link ParcelaAgricola to Cultura--><g id="link_ParcelaAgricola_Cultura"><path codeLine="63" d="M589.13,256.03 C611.87,279.1 643.9,311.59 667.69,335.73 " fill="none" id="ParcelaAgricola-to-Cultura" style="stroke:#181818;stroke-width:1.0;"/><polygon fill="#181818" points="671.44,339.53,667.979,330.3093,667.9332,335.966,662.2765,335.9202,671.44,339.53" style="stroke:#181818;stroke-width:1.0;"/><text fill="#000000" font-family="sans-serif" font-size="13" lengthAdjust="spacing" textLength="22" x="639" y="306.7686">tem</text><text fill="#000000" font-family="sans-serif" font-size="13" lengthAdjust="spacing" textLength="5" x="589.7366" y="275.8553">*</text><text fill="#000000" font-family="sans-serif" font-size="13" lengthAdjust="spacing" textLength="7" x="657.4269" y="329.2772">1</text></g><!--MD5=[e763b3609a8cfe5e9a84e7ed9f27cdea]
link Cultura to FatoresDeProdução--><g id="link_Cultura_FatoresDeProdução"><path codeLine="64" d="M642.68,397.29 C597.62,418.37 533.28,448.5 477,475 C471.45,477.62 465.71,480.32 459.93,483.05 " fill="none" id="Cultura-to-FatoresDeProdução" style="stroke:#181818;stroke-width:1.0;"/><polygon fill="#181818" points="455.07,485.34,464.9167,485.1316,459.5951,483.2131,461.5136,477.8915,455.07,485.34" style="stroke:#181818;stroke-width:1.0;"/><text fill="#000000" font-family="sans-serif" font-size="13" lengthAdjust="spacing" textLength="21" x="575" y="441.7686">usa</text><text fill="#000000" font-family="sans-serif" font-size="13" lengthAdjust="spacing" textLength="5" x="630.0156" y="397.7608">*</text><text fill="#000000" font-family="sans-serif" font-size="13" lengthAdjust="spacing" textLength="7" x="463.2261" y="478.6045">1</text></g><!--MD5=[39b23d980d924160e954b3117c8dff99]
link InstalaçãoAgrícola to Edifício--><g id="link_InstalaçãoAgrícola_Edifício"><path codeLine="65" d="M288.68,264.18 C282.78,290.16 275.06,324.18 270.06,346.19 " fill="none" id="InstalaçãoAgrícola-to-Edifício" style="stroke:#181818;stroke-width:1.0;"/><polygon fill="#181818" points="268.92,351.24,274.8041,343.3421,270.0213,346.3628,267.0006,341.58,268.92,351.24" style="stroke:#181818;stroke-width:1.0;"/><text fill="#000000" font-family="sans-serif" font-size="13" lengthAdjust="spacing" textLength="22" x="282" y="306.7686">tem</text><text fill="#000000" font-family="sans-serif" font-size="13" lengthAdjust="spacing" textLength="7" x="279.7223" y="283.4283">1</text><text fill="#000000" font-family="sans-serif" font-size="13" lengthAdjust="spacing" textLength="5" x="264.3904" y="340.7874">*</text></g><!--MD5=[c3981323afe01092465658d07ea158be]
link Estábulo to Edifício--><g id="link_Estábulo_Edifício"><path codeLine="66" d="M175.3,244.51 C191.46,266.84 220.19,306.56 240.79,335.03 " fill="none" id="Estábulo-to-Edifício" style="stroke:#181818;stroke-width:1.0;"/><polygon fill="none" points="246.6,331.12,252.65,351.43,235.26,339.33,246.6,331.12" style="stroke:#181818;stroke-width:1.0;"/></g><!--MD5=[95a5347fef05533b6a3aaa27f24aefcf]
link Garagem to Edifício--><g id="link_Garagem_Edifício"><path codeLine="67" d="M67.88,244.52 C87.9,262.1 120.88,289.77 152,310 C158.26,314.07 189.39,330.14 217.39,344.41 " fill="none" id="Garagem-to-Edifício" style="stroke:#181818;stroke-width:1.0;"/><polygon fill="none" points="220.83,338.3,235.49,353.6,214.49,350.79,220.83,338.3" style="stroke:#181818;stroke-width:1.0;"/></g><!--MD5=[4e39f0b53681ff475286dafa27d032a9]
link Armazém to Edifício--><g id="link_Armazém_Edifício"><path codeLine="68" d="M412.74,244.51 C385.11,267.69 335.18,309.6 301.08,338.22 " fill="none" id="Armazém-to-Edifício" style="stroke:#181818;stroke-width:1.0;"/><polygon fill="none" points="305.16,343.94,285.34,351.43,296.16,333.21,305.16,343.94" style="stroke:#181818;stroke-width:1.0;"/></g><!--MD5=[a11307f9b3e6add6d97b0f82a6a6d2b0]
link Garagem to Máquina--><g id="link_Garagem_Máquina"><path codeLine="69" d="M45.37,244.63 C42.73,258 39.39,277.09 38,294 C37.42,301.09 37.82,302.89 38,310 C38.31,321.97 38.97,335.3 39.59,346.21 " fill="none" id="Garagem-to-Máquina" style="stroke:#181818;stroke-width:1.0;"/><polygon fill="#181818" points="39.89,351.36,43.3422,342.136,39.5897,346.369,35.3567,342.6165,39.89,351.36" style="stroke:#181818;stroke-width:1.0;"/><text fill="#000000" font-family="sans-serif" font-size="13" lengthAdjust="spacing" textLength="39" x="39" y="306.7686">guarda</text><text fill="#000000" font-family="sans-serif" font-size="13" lengthAdjust="spacing" textLength="7" x="36.2756" y="263.9102">1</text><text fill="#000000" font-family="sans-serif" font-size="13" lengthAdjust="spacing" textLength="5" x="33.6491" y="340.6384">*</text></g><!--MD5=[87b4e74b3f80cfbc5233d8c8fc6a6b61]
link Estábulo to Animal--><g id="link_Estábulo_Animal"><path codeLine="70" d="M161.76,244.56 C160.7,261.24 159.42,287.36 160,310 C160.31,321.97 160.97,335.3 161.59,346.21 " fill="none" id="Estábulo-to-Animal" style="stroke:#181818;stroke-width:1.0;"/><polygon fill="#181818" points="161.89,351.36,165.3422,342.136,161.5897,346.369,157.3567,342.6165,161.89,351.36" style="stroke:#181818;stroke-width:1.0;"/><text fill="#000000" font-family="sans-serif" font-size="13" lengthAdjust="spacing" textLength="39" x="161" y="306.7686">guarda</text><text fill="#000000" font-family="sans-serif" font-size="13" lengthAdjust="spacing" textLength="7" x="153.3676" y="263.8196">1</text><text fill="#000000" font-family="sans-serif" font-size="13" lengthAdjust="spacing" textLength="5" x="155.6491" y="340.6384">*</text></g><!--MD5=[87381810f82c6388d80a3952a250a1aa]
link Armazém to Colheita--><g id="link_Armazém_Colheita"><path codeLine="71" d="M438.91,244.51 C447.78,270.02 464.52,318.21 474.32,346.41 " fill="none" id="Armazém-to-Colheita" style="stroke:#181818;stroke-width:1.0;"/><polygon fill="#181818" points="476.07,351.43,476.8948,341.6157,474.4291,346.7069,469.3379,344.2412,476.07,351.43" style="stroke:#181818;stroke-width:1.0;"/><text fill="#000000" font-family="sans-serif" font-size="13" lengthAdjust="spacing" textLength="39" x="462" y="306.7686">guarda</text><text fill="#000000" font-family="sans-serif" font-size="13" lengthAdjust="spacing" textLength="7" x="432.6179" y="263.7549">1</text><text fill="#000000" font-family="sans-serif" font-size="13" lengthAdjust="spacing" textLength="5" x="468.1722" y="340.7325">*</text></g><!--MD5=[8ed9ffcdb6b2e805a316f2d841ee449e]
link Armazém to FatoresDeProdução--><g id="link_Armazém_FatoresDeProdução"><path codeLine="72" d="M424.45,244.5 C414.08,266.08 397.12,304.75 390,340 C380.67,386.19 380.28,440.42 381.52,476.99 " fill="none" id="Armazém-to-FatoresDeProdução" style="stroke:#181818;stroke-width:1.0;"/><polygon fill="#181818" points="381.72,482.25,385.3832,473.1077,381.5344,477.2534,377.3887,473.4047,381.72,482.25" style="stroke:#181818;stroke-width:1.0;"/><text fill="#000000" font-family="sans-serif" font-size="13" lengthAdjust="spacing" textLength="39" x="391" y="374.2686">guarda</text><text fill="#000000" font-family="sans-serif" font-size="13" lengthAdjust="spacing" textLength="7" x="413.7597" y="264.06">1</text><text fill="#000000" font-family="sans-serif" font-size="13" lengthAdjust="spacing" textLength="5" x="375.8387" y="471.8564">*</text></g><!--MD5=[9c5aa10de83d7e48b89916c20d2c5281]
link Armazém to Ração--><g id="link_Armazém_Ração"><path codeLine="73" d="M454.18,244.64 C469.99,257.7 491.9,276.39 510,294 C527.67,311.19 546.47,332 559.81,347.25 " fill="none" id="Armazém-to-Ração" style="stroke:#181818;stroke-width:1.0;"/><polygon fill="#181818" points="563.42,351.4,560.524,341.9865,560.1356,347.63,554.4921,347.2416,563.42,351.4" style="stroke:#181818;stroke-width:1.0;"/><text fill="#000000" font-family="sans-serif" font-size="13" lengthAdjust="spacing" textLength="39" x="526" y="306.7686">guarda</text><text fill="#000000" font-family="sans-serif" font-size="13" lengthAdjust="spacing" textLength="7" x="452.3735" y="263.9231">1</text><text fill="#000000" font-family="sans-serif" font-size="13" lengthAdjust="spacing" textLength="5" x="552.5487" y="340.6922">*</text></g><!--MD5=[eeefb8e2ab1d3cf5ffb35978832df263]
link CadernoDeCampo to Plano--><g id="link_CadernoDeCampo_Plano"><path codeLine="74" d="M877.88,391.15 C899.55,413.65 934.76,450.21 961.98,478.48 " fill="none" id="CadernoDeCampo-to-Plano" style="stroke:#181818;stroke-width:1.0;"/><polygon fill="#181818" points="965.6,482.24,962.2322,472.9849,962.1293,478.6408,956.4734,478.5379,965.6,482.24" style="stroke:#181818;stroke-width:1.0;"/><text fill="#000000" font-family="sans-serif" font-size="13" lengthAdjust="spacing" textLength="85" x="930" y="441.7686">constituido por</text><text fill="#000000" font-family="sans-serif" font-size="13" lengthAdjust="spacing" textLength="7" x="875.4869" y="411.0104">1</text><text fill="#000000" font-family="sans-serif" font-size="13" lengthAdjust="spacing" textLength="7" x="951.4278" y="471.8445">1</text></g><!--MD5=[71869bde8a6d94694958120a60275d55]
link CadernoDeCampo to Registo--><g id="link_CadernoDeCampo_Registo"><path codeLine="75" d="M800.64,391.02 C792.09,393.84 783.34,396.59 775,399 C719.28,415.1 693.48,393 648,429 C634.72,439.51 625.04,454.98 618.14,470.13 " fill="none" id="CadernoDeCampo-to-Registo" style="stroke:#181818;stroke-width:1.0;"/><polygon fill="#181818" points="616.09,474.82,623.3718,468.1886,618.1008,470.2422,616.0472,464.9712,616.09,474.82" style="stroke:#181818;stroke-width:1.0;"/><text fill="#000000" font-family="sans-serif" font-size="13" lengthAdjust="spacing" textLength="85" x="649" y="441.7686">constituido por</text><text fill="#000000" font-family="sans-serif" font-size="13" lengthAdjust="spacing" textLength="7" x="777.2839" y="410.4858">1</text><text fill="#000000" font-family="sans-serif" font-size="13" lengthAdjust="spacing" textLength="5" x="612.7778" y="464.2979">*</text></g><!--MD5=[00a2b7b20e7d7828fa181bc7c0dc6998]
link Cliente to Utilizador--><g id="link_Cliente_Utilizador"><path codeLine="76" d="M1391.48,244.51 C1368.7,263.44 1329.13,293.53 1290,310 C1212.21,342.74 1114.84,357.54 1054.79,363.94 " fill="none" id="Cliente-to-Utilizador" style="stroke:#181818;stroke-width:1.0;"/><polygon fill="none" points="1055.42,370.91,1034.83,365.91,1054.05,356.98,1055.42,370.91" style="stroke:#181818;stroke-width:1.0;"/></g><!--MD5=[9647e40365451371e1e53e7a3cd08b0a]
link Condutor to Utilizador--><g id="link_Condutor_Utilizador"><path codeLine="77" d="M1208.29,239.07 C1163.7,253.51 1091.5,278.21 1068,294 C1051.46,305.11 1036.07,320.94 1024.05,335.15 " fill="none" id="Condutor-to-Utilizador" style="stroke:#181818;stroke-width:1.0;"/><polygon fill="none" points="1029.14,339.99,1011.19,351.25,1018.2,331.25,1029.14,339.99" style="stroke:#181818;stroke-width:1.0;"/></g><!--MD5=[9b6694a32435faa1440ba884f6262e89]
link GestorAgrícola to Utilizador--><g id="link_GestorAgrícola_Utilizador"><path codeLine="78" d="M875.89,244.51 C898.59,267.37 939.38,308.45 967.76,337.03 " fill="none" id="GestorAgrícola-to-Utilizador" style="stroke:#181818;stroke-width:1.0;"/><polygon fill="none" points="972.93,332.31,982.05,351.43,962.99,342.17,972.93,332.31" style="stroke:#181818;stroke-width:1.0;"/></g><!--MD5=[185fc5f2d036475d1a552dbd8c36be60]
link GestorDeDistribuição to Utilizador--><g id="link_GestorDeDistribuição_Utilizador"><path codeLine="79" d="M1019.17,244.7 C1005.64,256.83 989.45,274.38 982,294 C977.38,306.16 978.8,319.93 982.29,332.29 " fill="none" id="GestorDeDistribuição-to-Utilizador" style="stroke:#181818;stroke-width:1.0;"/><polygon fill="none" points="988.93,330.06,989.46,351.24,975.84,335.01,988.93,330.06" style="stroke:#181818;stroke-width:1.0;"/></g><!--MD5=[6148c1f7f24fd2faad81ff7ae0fe02c8]
link GestorAgrícola to Cultura--><g id="link_GestorAgrícola_Cultura"><path codeLine="80" d="M839.82,244.51 C814.18,267.24 768.25,307.98 736.04,336.54 " fill="none" id="GestorAgrícola-to-Cultura" style="stroke:#181818;stroke-width:1.0;"/><polygon fill="#181818" points="732.19,339.96,741.5798,336.9882,735.9333,336.6453,736.2762,330.9988,732.19,339.96" style="stroke:#181818;stroke-width:1.0;"/><text fill="#000000" font-family="sans-serif" font-size="13" lengthAdjust="spacing" textLength="25" x="780" y="306.7686">gere</text><text fill="#000000" font-family="sans-serif" font-size="13" lengthAdjust="spacing" textLength="7" x="826.1578" y="263.7549">1</text><text fill="#000000" font-family="sans-serif" font-size="13" lengthAdjust="spacing" textLength="5" x="734.0558" y="329.3482">*</text></g><!--MD5=[a49cae8d04e16ad4a039fa2fcd679256]
link GestorAgrícola to CadernoDeCampo--><g id="link_GestorAgrícola_CadernoDeCampo"><path codeLine="81" d="M856.2,244.54 C853.78,261.21 850.84,287.32 852,310 C852.55,320.77 853.67,332.6 854.79,342.8 " fill="none" id="GestorAgrícola-to-CadernoDeCampo" style="stroke:#181818;stroke-width:1.0;"/><polygon fill="#181818" points="855.38,347.96,858.3528,338.5705,854.8231,342.9911,850.4025,339.4615,855.38,347.96" style="stroke:#181818;stroke-width:1.0;"/><text fill="#000000" font-family="sans-serif" font-size="13" lengthAdjust="spacing" textLength="39" x="853" y="306.7686">regista</text><text fill="#000000" font-family="sans-serif" font-size="13" lengthAdjust="spacing" textLength="7" x="847.3494" y="263.7937">1</text><text fill="#000000" font-family="sans-serif" font-size="13" lengthAdjust="spacing" textLength="5" x="848.876" y="337.3805">*</text></g><!--MD5=[239056280ff4086d32ed10d90b340da0]
link Cabaz to ProdutosAgrícola--><g id="link_Cabaz_ProdutosAgrícola"><path codeLine="82" d="M1217.74,380.78 C1176.32,396.16 1094.83,425.43 1024,445 C963.5,461.72 944.72,452.82 886,475 C869.23,481.33 851.7,490.77 837.43,499.28 " fill="none" id="Cabaz-to-ProdutosAgrícola" style="stroke:#181818;stroke-width:1.0;"/><polygon fill="#181818" points="833.11,501.89,842.8854,500.6895,837.3975,499.3175,838.7695,493.8296,833.11,501.89" style="stroke:#181818;stroke-width:1.0;"/><text fill="#000000" font-family="sans-serif" font-size="13" lengthAdjust="spacing" textLength="38" x="1074" y="441.7686">possui</text><text fill="#000000" font-family="sans-serif" font-size="13" lengthAdjust="spacing" textLength="7" x="1202.8578" y="379.7584">1</text><text fill="#000000" font-family="sans-serif" font-size="13" lengthAdjust="spacing" textLength="5" x="836.2259" y="491.1787">*</text></g><!--MD5=[4c1936c4fd4a03709f7259b7fbb7e6bf]
link Cliente to Cabaz--><g id="link_Cliente_Cabaz"><path codeLine="83" d="M1398.25,244.59 C1384.58,262.24 1361.62,289.95 1338,310 C1319.1,326.05 1295.42,340.88 1276.68,351.6 " fill="none" id="Cliente-to-Cabaz" style="stroke:#181818;stroke-width:1.0;"/><polygon fill="#181818" points="1272.03,354.23,1281.8342,353.2933,1276.3852,351.7739,1277.9045,346.3249,1272.03,354.23" style="stroke:#181818;stroke-width:1.0;"/><text fill="#000000" font-family="sans-serif" font-size="13" lengthAdjust="spacing" textLength="67" x="1354" y="306.7686">encomenda</text><text fill="#000000" font-family="sans-serif" font-size="13" lengthAdjust="spacing" textLength="7" x="1386.4766" y="263.8584">1</text><text fill="#000000" font-family="sans-serif" font-size="13" lengthAdjust="spacing" textLength="5" x="1279.9662" y="346.1321">*</text></g><!--MD5=[f187239c0a0e92ad2de2a032efda2d2c]
link Condutor to Cabaz--><g id="link_Condutor_Cabaz"><path codeLine="84" d="M1245,244.51 C1245,270.02 1245,318.21 1245,346.41 " fill="none" id="Condutor-to-Cabaz" style="stroke:#181818;stroke-width:1.0;"/><polygon fill="#181818" points="1245,351.43,1249,342.43,1245,346.43,1241,342.43,1245,351.43" style="stroke:#181818;stroke-width:1.0;"/><text fill="#000000" font-family="sans-serif" font-size="13" lengthAdjust="spacing" textLength="42" x="1246" y="306.7686">recolhe</text><text fill="#000000" font-family="sans-serif" font-size="13" lengthAdjust="spacing" textLength="7" x="1236.9719" y="263.7549">1</text><text fill="#000000" font-family="sans-serif" font-size="13" lengthAdjust="spacing" textLength="5" x="1239.1406" y="340.7325">*</text></g><!--MD5=[0381e599b0b1c337fb020b8a9f9d6ac1]
link Condutor to Hub--><g id="link_Condutor_Hub"><path codeLine="85" d="M1259.32,244.54 C1270.14,257.71 1285.11,276.57 1297,294 C1346.03,365.86 1396.21,456.27 1418.32,497.15 " fill="none" id="Condutor-to-Hub" style="stroke:#181818;stroke-width:1.0;"/><polygon fill="#181818" points="1420.88,501.89,1420.1065,492.0716,1418.4967,497.4945,1413.0738,495.8848,1420.88,501.89" style="stroke:#181818;stroke-width:1.0;"/><text fill="#000000" font-family="sans-serif" font-size="13" lengthAdjust="spacing" textLength="82" x="1363" y="374.2686">entrega cabaz</text><text fill="#000000" font-family="sans-serif" font-size="13" lengthAdjust="spacing" textLength="7" x="1255.4984" y="263.7937">1</text><text fill="#000000" font-family="sans-serif" font-size="13" lengthAdjust="spacing" textLength="5" x="1411.8856" y="491.1787">*</text></g><!--MD5=[09183074ccc75606594589c1e329afcc]
link GestorDeDistribuição to Cabaz--><g id="link_GestorDeDistribuição_Cabaz"><path codeLine="86" d="M1047.41,244.66 C1055.13,263.15 1069.77,292.31 1091,310 C1126.67,339.71 1179.02,355.26 1212.55,362.67 " fill="none" id="GestorDeDistribuição-to-Cabaz" style="stroke:#181818;stroke-width:1.0;"/><polygon fill="#181818" points="1217.77,363.79,1209.8195,357.9771,1212.8831,362.7326,1208.1276,365.7962,1217.77,363.79" style="stroke:#181818;stroke-width:1.0;"/><text fill="#000000" font-family="sans-serif" font-size="13" lengthAdjust="spacing" textLength="144" x="1092" y="306.7686">gere recolha e transporte</text><text fill="#000000" font-family="sans-serif" font-size="13" lengthAdjust="spacing" textLength="7" x="1041.2648" y="263.949">1</text><text fill="#000000" font-family="sans-serif" font-size="13" lengthAdjust="spacing" textLength="5" x="1205.1517" y="358.4147">*</text></g><!--MD5=[abe83c78d00756feb66ab7172c6e9cbd]
link Cabaz to Hub--><g id="link_Cabaz_Hub"><path codeLine="87" d="M1248.12,387.52 C1251.93,404.02 1259.82,428.84 1275,445 C1311.14,483.48 1371.42,504.13 1405.17,513.2 " fill="none" id="Cabaz-to-Hub" style="stroke:#181818;stroke-width:1.0;"/><polygon fill="#181818" points="1410.35,514.56,1402.6607,508.4057,1405.5139,513.2903,1400.6293,516.1435,1410.35,514.56" style="stroke:#181818;stroke-width:1.0;"/><text fill="#000000" font-family="sans-serif" font-size="13" lengthAdjust="spacing" textLength="50" x="1276" y="441.7686">entregue</text><text fill="#000000" font-family="sans-serif" font-size="13" lengthAdjust="spacing" textLength="5" x="1243.3021" y="406.7678">*</text><text fill="#000000" font-family="sans-serif" font-size="13" lengthAdjust="spacing" textLength="7" x="1395.3922" y="508.204">1</text></g><!--MD5=[28d2aa8b6422047789e885c1c3e107c9]
link Cliente to Hub--><g id="link_Cliente_Hub"><path codeLine="88" d="M1440.26,239.62 C1476.09,256.27 1535.08,289.95 1560,340 C1593.5,407.28 1499.83,476.29 1453.83,505.08 " fill="none" id="Cliente-to-Hub" style="stroke:#181818;stroke-width:1.0;"/><polygon fill="#181818" points="1449.53,507.74,1459.2873,506.4005,1453.7804,505.1067,1455.0741,499.5998,1449.53,507.74" style="stroke:#181818;stroke-width:1.0;"/><text fill="#000000" font-family="sans-serif" font-size="13" lengthAdjust="spacing" textLength="42" x="1568" y="374.2686">recolhe</text><text fill="#000000" font-family="sans-serif" font-size="13" lengthAdjust="spacing" textLength="5" x="1448.0015" y="238.9879">*</text><text fill="#000000" font-family="sans-serif" font-size="13" lengthAdjust="spacing" textLength="5" x="1457.3782" y="498.8044">*</text></g><!--MD5=[070d7e17a4560bbbba57a814a8ef568f]
link Cultura to ProdutosAgrícola--><g id="link_Cultura_ProdutosAgrícola"><path codeLine="89" d="M720.63,399.13 C741.3,427.81 772.65,471.32 791.35,497.28 " fill="none" id="Cultura-to-ProdutosAgrícola" style="stroke:#181818;stroke-width:1.0;"/><polygon fill="#181818" points="794.46,501.6,792.4358,491.9614,791.5336,497.5459,785.9491,496.6437,794.46,501.6" style="stroke:#181818;stroke-width:1.0;"/><text fill="#000000" font-family="sans-serif" font-size="13" lengthAdjust="spacing" textLength="39" x="754" y="441.7686">produz</text><text fill="#000000" font-family="sans-serif" font-size="13" lengthAdjust="spacing" textLength="7" x="717.1631" y="418.5155">1</text><text fill="#000000" font-family="sans-serif" font-size="13" lengthAdjust="spacing" textLength="7" x="782.1468" y="491.101">1</text></g><!--MD5=[75b8f7dbcfed39511f5fb1f430d4e5b6]
link Empresa to Hub--><g id="link_Empresa_Hub"><path codeLine="90" d="M1498.17,387.53 C1484.14,414.58 1456.79,467.33 1441.34,497.13 " fill="none" id="Empresa-to-Hub" style="stroke:#181818;stroke-width:1.0;"/><polygon fill="#181818" points="1438.97,501.71,1446.6679,495.5665,1441.2745,497.2727,1439.5683,491.8793,1438.97,501.71" style="stroke:#181818;stroke-width:1.0;"/><text fill="#000000" font-family="sans-serif" font-size="13" lengthAdjust="spacing" textLength="7" x="1476" y="441.7686">é</text><text fill="#000000" font-family="sans-serif" font-size="13" lengthAdjust="spacing" textLength="7" x="1487.5481" y="406.7808">1</text><text fill="#000000" font-family="sans-serif" font-size="13" lengthAdjust="spacing" textLength="22" x="1445.5851" y="491.2475">0..1</text></g><!--MD5=[4abdbab5e7b34374ac7f2652f9264dd0]
link SistemaDeRega to Cultura--><g id="link_SistemaDeRega_Cultura"><path codeLine="91" d="M710.55,244.51 C708.66,266.78 705.29,306.33 702.87,334.78 " fill="none" id="SistemaDeRega-to-Cultura" style="stroke:#181818;stroke-width:1.0;"/><polygon fill="#181818" points="702.43,339.96,707.1615,331.3221,702.844,334.9772,699.189,330.6597,702.43,339.96" style="stroke:#181818;stroke-width:1.0;"/><text fill="#000000" font-family="sans-serif" font-size="13" lengthAdjust="spacing" textLength="25" x="707" y="306.7686">rega</text><text fill="#000000" font-family="sans-serif" font-size="13" lengthAdjust="spacing" textLength="7" x="702.0959" y="263.7549">1</text><text fill="#000000" font-family="sans-serif" font-size="13" lengthAdjust="spacing" textLength="5" x="697.4138" y="329.3482">*</text></g><!--MD5=[ab224aae5d67e1a6986c4a9cb807e78e]
link Gravidade to SistemaDeRega--><g id="link_Gravidade_SistemaDeRega"><path codeLine="92" d="M712.89,78.29 C712.74,104.28 712.43,154.01 712.23,188.43 " fill="none" id="Gravidade-to-SistemaDeRega" style="stroke:#181818;stroke-width:1.0;"/><polygon fill="none" points="719.23,188.48,712.1,208.44,705.23,188.4,719.23,188.48" style="stroke:#181818;stroke-width:1.0;"/></g><!--MD5=[362b8d53fdc1feec819228a10c68f0f5]
link Bombeada to SistemaDeRega--><g id="link_Bombeada_SistemaDeRega"><path codeLine="93" d="M816.7,78.29 C797.6,105.14 760.47,157.35 735.95,191.82 " fill="none" id="Bombeada-to-SistemaDeRega" style="stroke:#181818;stroke-width:1.0;"/><polygon fill="none" points="741.43,196.2,724.14,208.44,730.02,188.08,741.43,196.2" style="stroke:#181818;stroke-width:1.0;"/></g><!--MD5=[7ae1e12cfc0a3188f210e5430848aef7]
link EstaçãoMeteorológica to SistemaDeRega--><g id="link_EstaçãoMeteorológica_SistemaDeRega"><path codeLine="94" d="M514.44,113.05 C569.74,144.53 637.08,182.86 677.14,205.66 " fill="none" id="EstaçãoMeteorológica-to-SistemaDeRega" style="stroke:#181818;stroke-width:1.0;"/><polygon fill="#181818" points="681.89,208.36,676.0463,200.4321,677.5444,205.887,672.0895,207.3851,681.89,208.36" style="stroke:#181818;stroke-width:1.0;"/><text fill="#000000" font-family="sans-serif" font-size="13" lengthAdjust="spacing" textLength="46" x="594" y="155.7686">controla</text><text fill="#000000" font-family="sans-serif" font-size="13" lengthAdjust="spacing" textLength="7" x="518.7073" y="132.556">1</text><text fill="#000000" font-family="sans-serif" font-size="13" lengthAdjust="spacing" textLength="7" x="663.3366" y="197.6384">1</text></g><!--MD5=[060fde267f1a55b8a60ecd437c6f8555]
@startuml
 object InstalaçãoAgrícola{
    Designação
    Área
    Contacto
}
object Cultura {
    Especie Vegetal
    Permanência
}
object FatoresDeProdução{
Nome
Formulação
Ficha Técnica
}
object SistemaDeRega
object ParcelaAgricola {
    Designação
    Area
}
object Edifício
object Estábulo
object Garagem
object Armazém
object Animal
object Máquina
object Colheita
object Ração
object ProdutosAgrícola
object Cabaz
object CadernoDeCampo {
Ano
}
object EstaçãoMeteorológica {
Sensor de pluviosidade
Sensor de temperatura do solo
Sensor de humidade do solo
Sensor de velocidade do vento
Sensor de temperatura, de humidade do ar e pressão atmosférica
}
object Plano {
Plano de Rega
Plano de Fertilização
Plano de Correções Minerais
}
object Registo {
Registo de Fertilização
Registo de Dados dos Sensores
Registo de Colheita
Registo de Rega
}
object Utilizador
object GestorAgrícola
object Cliente
object Condutor
object GestorDeDistribuição
object Empresa
object Hub
object Gravidade
object Bombeada


InstalaçãoAgrícola "1" -> "*" ParcelaAgricola :  tem
ParcelaAgricola "*" - -> "1" Cultura : tem
Cultura "*" - -> "1" FatoresDeProdução : usa
InstalaçãoAgrícola "1" - ->"*" Edifício : tem
Estábulo - -|> Edifício
Garagem - -|> Edifício
Armazém - -|> Edifício
Garagem "1"- ->"*" Máquina : guarda
Estábulo "1"- ->"*" Animal : guarda
Armazém "1"- ->"*" Colheita : guarda
Armazém "1"- ->"*" FatoresDeProdução : guarda
Armazém "1"- ->"*" Ração : guarda
CadernoDeCampo "1" - -> "1" Plano : constituido por
CadernoDeCampo "1" - -> "*" Registo : constituido por
Cliente - -|> Utilizador
Condutor - -|> Utilizador
GestorAgrícola - -|> Utilizador
GestorDeDistribuição - -|> Utilizador
GestorAgrícola "1" - -> "*" Cultura :gere
GestorAgrícola "1" - -> "*" CadernoDeCampo : regista
Cabaz "1" - -> "*" ProdutosAgrícola : possui
Cliente "1" - -> "*" Cabaz : encomenda
Condutor "1" - -> "*" Cabaz : recolhe
Condutor "1" - -> "*" Hub : entrega cabaz
GestorDeDistribuição "1" - -> "*" Cabaz : gere recolha e transporte
Cabaz "*" - -> "1" Hub : entregue
Cliente "*" - -> "*" Hub : recolhe
Cultura "1"- -> "1" ProdutosAgrícola : produz
Empresa "1"- ->"0..1" Hub : é
SistemaDeRega "1"- ->"*" Cultura : rega
Gravidade - -|> SistemaDeRega
Bombeada  - -|> SistemaDeRega
EstaçãoMeteorológica "1"- ->"1" SistemaDeRega : controla
@enduml

PlantUML version 1.2022.13(Sat Nov 19 13:22:17 WET 2022)
(GPL source distribution)
Java Runtime: OpenJDK Runtime Environment
JVM: OpenJDK 64-Bit Server VM
Default Encoding: Cp1252
Language: en
Country: GB
--></g></svg>